<svg width="104" height="104" viewBox="0 0 104 104" fill="none" xmlns="http://www.w3.org/2000/svg">
<g clip-path="url(#clip0_35_159)">
<path d="M35.88 2.3335C36.0781 1.65964 36.4891 1.06807 37.0516 0.6474C37.614 0.226728 38.2976 -0.000410712 39 5.57516e-07H65C65.5147 0.000391259 66.0219 0.123019 66.48 0.357789C66.938 0.592558 67.3337 0.932756 67.6346 1.35038C67.9354 1.768 68.1328 2.2511 68.2104 2.7599C68.288 3.26871 68.2437 3.78868 68.081 4.277L56.511 39H81.25C81.8586 38.9996 82.4551 39.1701 82.9716 39.492C83.4881 39.814 83.9038 40.2746 84.1714 40.8212C84.4389 41.3679 84.5476 41.9787 84.4851 42.584C84.4225 43.1894 84.1912 43.7651 83.8175 44.2455L38.3175 102.745C37.8514 103.348 37.1886 103.767 36.4449 103.93C35.7011 104.094 34.9236 103.991 34.248 103.64C33.5724 103.288 33.0416 102.711 32.7483 102.008C32.4549 101.305 32.4177 100.522 32.643 99.7945L44.3495 61.75H22.75C22.2447 61.7503 21.7463 61.6328 21.2944 61.4068C20.8425 61.1808 20.4495 60.8525 20.1466 60.4481C19.8438 60.0436 19.6394 59.5741 19.5497 59.0769C19.46 58.5796 19.4875 58.0683 19.63 57.5835L35.88 2.3335ZM41.431 6.5L27.092 55.25H48.75C49.2586 55.2499 49.7602 55.3692 50.2143 55.5982C50.6684 55.8273 51.0624 56.1597 51.3646 56.5688C51.6669 56.9779 51.8689 57.4522 51.9544 57.9535C52.0399 58.4549 52.0065 58.9694 51.857 59.4555L44.07 84.76L74.607 45.5H52C51.4853 45.4996 50.9781 45.377 50.52 45.1422C50.062 44.9074 49.6663 44.5672 49.3654 44.1496C49.0646 43.732 48.8673 43.2489 48.7896 42.7401C48.712 42.2313 48.7564 41.7113 48.919 41.223L60.489 6.5H41.431Z" fill="#011526"/>
</g>
<defs>
<clipPath id="clip0_35_159">
<rect width="104" height="104" fill="white"/>
</clipPath>
</defs>
</svg>
