<svg width="104" height="104" viewBox="0 0 104 104" fill="none" xmlns="http://www.w3.org/2000/svg">
<path d="M14.7862 30.2125C15.7457 30.2125 16.5235 29.4347 16.5235 28.4752C16.5235 27.5157 15.7457 26.7379 14.7862 26.7379C13.8267 26.7379 13.0489 27.5157 13.0489 28.4752C13.0489 29.4347 13.8267 30.2125 14.7862 30.2125Z" fill="white"/>
<path d="M32.4612 48.75H29.25C23.6473 48.75 18.2741 50.9757 14.3124 54.9374C10.3507 58.8991 8.125 64.2723 8.125 69.875V73.125C8.12537 76.9889 9.18624 80.7786 11.192 84.0811C13.1978 87.3836 16.0715 90.0723 19.5 91.8541V99.125H29.25L30.875 95.875C31.5642 95.9372 65 95.875 65 95.875L66.625 99.125H74.75V92.625C82.0453 89.7681 87.9231 84.267 89.375 76.375L95.875 73.125V61.75H87.75C85.6525 57.3991 82.2422 53.8163 78 51.5068V40.625C75.2807 40.5831 72.6072 41.3276 70.301 42.769C67.9947 44.2104 66.154 46.2873 65 48.75H58.5827" stroke="white" stroke-width="3.25" stroke-linecap="round" stroke-linejoin="round"/>
<path d="M75.5625 63.375C76.9087 63.375 78 62.2837 78 60.9375C78 59.5913 76.9087 58.5 75.5625 58.5C74.2163 58.5 73.125 59.5913 73.125 60.9375C73.125 62.2837 74.2163 63.375 75.5625 63.375Z" fill="white"/>
<path d="M26 55.25H65" stroke="white" stroke-width="3.25" stroke-linecap="round" stroke-linejoin="round"/>
<path d="M45.4998 55.25C54.4745 55.25 61.7498 47.9746 61.7498 39C61.7498 30.0254 54.4745 22.75 45.4998 22.75C36.5252 22.75 29.2498 30.0254 29.2498 39C29.2498 47.9746 36.5252 55.25 45.4998 55.25Z" stroke="white" stroke-width="3.25" stroke-linecap="round" stroke-linejoin="round"/>
<path d="M52 30.875L39 47.125" stroke="white" stroke-width="3.25" stroke-linecap="round" stroke-linejoin="round"/>
<path d="M39.8125 35.75C41.1587 35.75 42.25 34.6587 42.25 33.3125C42.25 31.9663 41.1587 30.875 39.8125 30.875C38.4663 30.875 37.375 31.9663 37.375 33.3125C37.375 34.6587 38.4663 35.75 39.8125 35.75Z" stroke="white" stroke-width="3.25" stroke-linecap="round" stroke-linejoin="round"/>
<path d="M51.1875 47.125C52.5337 47.125 53.625 46.0337 53.625 44.6875C53.625 43.3413 52.5337 42.25 51.1875 42.25C49.8413 42.25 48.75 43.3413 48.75 44.6875C48.75 46.0337 49.8413 47.125 51.1875 47.125Z" stroke="white" stroke-width="3.25" stroke-linecap="round" stroke-linejoin="round"/>
<path d="M69.875 22.75C71.6699 22.75 73.125 21.2949 73.125 19.5C73.125 17.7051 71.6699 16.25 69.875 16.25C68.0801 16.25 66.625 17.7051 66.625 19.5C66.625 21.2949 68.0801 22.75 69.875 22.75Z" stroke="white" stroke-width="3.25" stroke-linecap="round" stroke-linejoin="round"/>
<path d="M47.5313 87.859L55.5202 81.4677C56.1488 80.9874 56.5884 80.3012 56.7621 79.5294C56.9357 78.7576 56.8324 77.9493 56.4701 77.246C56.2406 76.8322 55.9236 76.4735 55.5411 76.1949C55.1587 75.9163 54.7201 75.7246 54.2559 75.633C53.7917 75.5414 53.3131 75.5522 52.8536 75.6647C52.394 75.7772 51.9645 75.9886 51.5951 76.2842L48.7513 78.5592V65.8216C48.7513 64.9596 48.4089 64.133 47.7994 63.5235C47.1899 62.914 46.3633 62.5716 45.5013 62.5716C44.6394 62.5716 43.8127 62.914 43.2032 63.5235C42.5937 64.133 42.2513 64.9596 42.2513 65.8216V78.5598L39.5762 76.4197C38.882 75.8525 37.9935 75.5794 37.1006 75.6586C36.2077 75.7378 35.3811 76.1631 34.7976 76.8436C34.2801 77.5184 34.0477 78.3691 34.1502 79.2132C34.2527 80.0574 34.6819 80.8277 35.3459 81.359L43.4709 87.859C44.0471 88.32 44.7631 88.5712 45.5011 88.5712C46.239 88.5712 46.955 88.32 47.5313 87.859Z" stroke="white" stroke-width="3.25" stroke-linecap="round" stroke-linejoin="round"/>
<path d="M80.5202 27.7139L85.3952 32.5889" stroke="white" stroke-width="3.25" stroke-linecap="round" stroke-linejoin="round"/>
<path d="M85.3952 27.7139L80.5202 32.5889" stroke="white" stroke-width="3.25" stroke-linecap="round" stroke-linejoin="round"/>
</svg>
