<svg xmlns="http://www.w3.org/2000/svg" xmlns:xlink="http://www.w3.org/1999/xlink" width="1132" zoomAndPan="magnify" viewBox="0 0 848.88 687.000002" height="916" preserveAspectRatio="xMidYMid meet" version="1.0"><path fill="#f2ae2e" d="M 355.082031 507.75 L 414.855469 372.796875 L 314.074219 343.289062 L 333.058594 307.707031 L 440.621094 105.816406 L 409 282.699219 L 529.523438 319.257812 L 330.890625 562.425781 Z M 355.082031 507.75 " fill-opacity="1" fill-rule="nonzero"/><path fill="#000559" d="M 698.324219 98.117188 C 704.617188 98.984375 709.0625 104.785156 708.195312 111.078125 L 702.121094 155.9375 C 700.820312 165.644531 692.085938 172.535156 682.324219 171.667969 L 635.132812 167.328125 C 629.4375 166.785156 625.207031 162.011719 625.207031 156.480469 C 625.207031 155.992188 625.261719 155.503906 625.316406 155.015625 C 626.128906 149.046875 631.605469 144.816406 637.574219 145.632812 L 661.65625 148.941406 C 602.152344 76.417969 510.050781 31.667969 407.75 37.09375 C 252.726562 45.285156 126.941406 170.746094 118.316406 325.769531 C 116.203125 362.976562 120.8125 398.886719 130.957031 432.351562 L 103.835938 445.046875 C 92.550781 409.515625 87.019531 371.441406 88.320312 331.898438 C 94.070312 159.246094 232.332031 17.347656 404.769531 7.53125 C 516.453125 1.183594 617.125 49.351562 682.703125 127.839844 C 682.703125 127.839844 684.222656 116.882812 685.414062 107.933594 C 686.226562 102.183594 691.109375 98.007812 696.75 98.007812 C 697.238281 98.007812 697.78125 98.0625 698.324219 98.117188 Z M 698.324219 98.117188 " fill-opacity="1" fill-rule="nonzero"/><path fill="#010326" d="M 745.082031 241.53125 C 756.363281 277.058594 761.894531 315.136719 760.59375 354.679688 C 754.84375 527.332031 616.582031 669.226562 444.148438 679.042969 C 332.464844 685.390625 231.789062 637.222656 166.210938 558.738281 C 166.210938 558.738281 164.640625 570.179688 163.445312 579.1875 C 162.632812 585.152344 157.101562 589.328125 151.132812 588.515625 L 149.996094 588.351562 C 144.027344 587.539062 139.851562 582.058594 140.609375 576.09375 L 146.792969 530.640625 C 148.09375 520.929688 156.828125 514.042969 166.59375 514.910156 L 213.78125 519.25 C 219.476562 519.789062 223.707031 524.5625 223.707031 530.097656 C 223.707031 530.585938 223.65625 531.074219 223.601562 531.5625 C 222.785156 537.527344 217.308594 541.757812 211.339844 540.945312 L 187.257812 537.636719 C 246.761719 610.15625 338.863281 654.90625 441.164062 649.484375 C 596.1875 641.292969 721.972656 515.832031 730.597656 360.808594 C 732.714844 323.597656 728.101562 287.691406 717.960938 254.222656 Z M 745.082031 241.53125 " fill-opacity="1" fill-rule="nonzero"/></svg>