<svg width="104" height="104" viewBox="0 0 104 104" fill="none" xmlns="http://www.w3.org/2000/svg">
<path d="M79.8952 28.8153C78.9405 27.6555 78.0406 26.5606 77.61 25.5227C77.1469 24.4075 77.0006 22.9409 76.8341 21.3911C76.57 18.8236 76.2673 15.9067 74.297 13.9425C72.3267 11.9783 69.422 11.6695 66.8484 11.4034C65.2966 11.243 63.832 11.0906 62.7149 10.6295C61.6789 10.1989 60.582 9.29703 59.4222 8.34234C57.3909 6.67266 55.0956 4.78156 52.1849 4.78156C49.2741 4.78156 46.9747 6.67266 44.9455 8.34234C43.7856 9.29703 42.6908 10.1989 41.6528 10.6295C40.5377 11.0906 39.0711 11.2389 37.5213 11.4034C34.9538 11.6695 32.0369 11.9702 30.0727 13.9405C28.1084 15.9108 27.7997 18.8155 27.5336 21.3911C27.3731 22.9409 27.2208 24.4075 26.7597 25.5227C26.3291 26.5606 25.4272 27.6555 24.4725 28.8153C22.8049 30.8466 20.9138 33.1419 20.9138 36.0547C20.9138 38.9675 22.8049 41.2648 24.4725 43.292C25.4272 44.4519 26.3291 45.5487 26.7597 46.5847C27.2208 47.6998 27.3691 49.1664 27.5336 50.7183C27.7997 53.2858 28.1003 56.2027 30.0727 58.1669C32.045 60.1311 34.9477 60.4378 37.5213 60.7039C39.0711 60.8644 40.5377 61.0167 41.6528 61.4798C42.6908 61.9084 43.7856 62.8103 44.9455 63.765C46.9767 65.4347 49.2741 67.3258 52.1849 67.3258C55.0956 67.3258 57.395 65.4347 59.4222 63.765C60.582 62.8103 61.6789 61.9084 62.7149 61.4798C63.832 61.0167 65.2966 60.8705 66.8484 60.7039C69.4159 60.4398 72.3328 60.1372 74.297 58.1669C76.2613 56.1966 76.57 53.2919 76.8341 50.7183C76.9945 49.1664 77.1469 47.7019 77.61 46.5847C78.0406 45.5487 78.9405 44.4519 79.8952 43.292C81.5648 41.2608 83.4559 38.9655 83.4559 36.0547C83.4559 33.1439 81.5648 30.8445 79.8952 28.8153ZM77.0717 40.9683C75.9891 42.2845 74.8699 43.6455 74.228 45.1852C73.5617 46.7939 73.3749 48.5977 73.1941 50.3405C72.9706 52.4936 72.7614 54.5269 71.7072 55.5811C70.653 56.6353 68.6197 56.8445 66.4666 57.068C64.7238 57.2488 62.92 57.4356 61.3113 58.1019C59.7716 58.7397 58.4106 59.8589 57.0964 60.9456C55.3902 62.3492 53.7814 63.6736 52.1808 63.6736C50.5802 63.6736 48.9694 62.3492 47.2652 60.9456C45.9489 59.863 44.588 58.7438 43.0503 58.1019C41.4416 57.4356 39.6378 57.2488 37.893 57.068C35.7399 56.8445 33.7066 56.6353 32.6524 55.5811C31.5981 54.5269 31.3889 52.4936 31.1675 50.3405C30.9867 48.5977 30.7999 46.7939 30.1316 45.1852C29.4938 43.6455 28.3745 42.2845 27.2878 40.9683C25.8944 39.2641 24.5781 37.6553 24.5781 36.0547C24.5781 34.4541 25.9025 32.8433 27.3041 31.1391C28.3867 29.8228 29.5059 28.4619 30.1478 26.9222C30.8161 25.3155 31.003 23.5117 31.1838 21.7669C31.4052 19.6138 31.6164 17.5805 32.6706 16.5262C33.7249 15.472 35.75 15.2628 37.897 15.0312C39.6419 14.8606 41.4375 14.6737 43.0625 14.0156C44.6002 13.3778 45.9611 12.2586 47.2774 11.1719C48.9816 9.77031 50.5924 8.44391 52.193 8.44391C53.7936 8.44391 55.4024 9.77031 57.1086 11.1719C58.4228 12.2545 59.7838 13.3737 61.3234 14.0156C62.9322 14.6839 64.7359 14.8708 66.4788 15.0495C68.6319 15.273 70.6652 15.4842 71.7194 16.5364C72.7736 17.5886 72.9828 19.6239 73.2063 21.777C73.387 23.5219 73.5739 25.3256 74.2402 26.9323C74.878 28.472 75.9972 29.833 77.0839 31.1492C78.4875 32.8534 79.8119 34.4642 79.8119 36.0648C79.8119 37.6655 78.4753 39.2641 77.0717 40.9683Z" fill="white"/>
<path d="M52.6094 19.2502C49.1989 19.2498 45.8649 20.2607 43.029 22.1552C40.1931 24.0497 37.9826 26.7425 36.6772 29.8933C35.3718 33.0441 35.0301 36.5112 35.6952 39.8562C36.3603 43.2012 38.0024 46.2738 40.4138 48.6856C42.8252 51.0973 45.8977 52.7397 49.2426 53.4052C52.5875 54.0707 56.0547 53.7294 59.2056 52.4243C62.3565 51.1193 65.0497 48.9092 66.9445 46.0735C68.8393 43.2378 69.8506 39.9039 69.8506 36.4934C69.8506 31.9206 68.0342 27.535 64.8009 24.3013C61.5676 21.0676 57.1822 19.2507 52.6094 19.2502ZM61.9105 32.9956C55.3638 36.3452 51.1631 43.4078 51.1205 43.4789C50.9537 43.7631 50.7233 44.0048 50.4473 44.1849C50.1713 44.365 49.8573 44.4786 49.53 44.5169C49.4478 44.5266 49.365 44.5314 49.2822 44.5311C48.9944 44.5311 48.7096 44.4727 48.445 44.3596C48.1804 44.2465 47.9414 44.081 47.7425 43.873L42.9833 38.9025C42.7896 38.6998 42.6378 38.4609 42.5365 38.1995C42.4351 37.9381 42.3863 37.6593 42.3927 37.379C42.3991 37.0987 42.4607 36.8224 42.5738 36.5659C42.687 36.3094 42.8496 36.0777 43.0524 35.8841C43.2551 35.6904 43.494 35.5386 43.7554 35.4372C44.0168 35.3359 44.2956 35.287 44.5759 35.2935C44.8562 35.2999 45.1325 35.3614 45.389 35.4746C45.6454 35.5878 45.8771 35.7504 46.0708 35.9531L48.9999 39.0122C50.9905 36.2984 54.8072 31.8419 59.9686 29.1972C60.218 29.0695 60.4901 28.9923 60.7694 28.9698C61.0487 28.9473 61.3296 28.9801 61.5962 29.0662C61.8629 29.1523 62.1099 29.2901 62.3233 29.4716C62.5366 29.6532 62.7121 29.875 62.8398 30.1245C62.9674 30.3739 63.0447 30.646 63.0672 30.9252C63.0896 31.2045 63.0569 31.4855 62.9708 31.7521C62.8847 32.0187 62.7469 32.2657 62.5653 32.4791C62.3838 32.6925 62.1619 32.868 61.9125 32.9956H61.9105Z" fill="white"/>
<path d="M69.6171 71.2095C65.841 71.0288 58.758 71.4553 53.7103 76.3222C53.1868 76.8303 52.6982 77.3732 52.2478 77.9472C51.7975 77.3732 51.3088 76.8303 50.7853 76.3222C45.7377 71.4472 38.6527 71.0288 34.8786 71.2095C33.6674 71.2627 32.5201 71.7677 31.6628 72.625C30.8056 73.4823 30.3006 74.6296 30.2474 75.8408C30.0686 79.6128 30.4932 86.6978 35.36 91.7455C38.87 95.3855 43.9888 97.2806 50.5944 97.3822C50.7853 97.3822 54.3989 97.3822 54.9169 97.3538C61.033 97.0795 65.8105 95.1986 69.1357 91.7455C74.0107 86.6978 74.4291 79.6128 74.2503 75.8408C74.1971 74.6292 73.6918 73.4816 72.8341 72.6243C71.9764 71.767 70.8286 71.2622 69.6171 71.2095ZM46.2028 85.5156L45.0735 88.9281C45.2482 88.9891 48.6383 90.1834 50.3669 93.7198C44.9171 93.5878 40.753 92.0725 37.9925 89.2084C34.0783 85.1459 33.7472 79.1984 33.8996 76.0053C33.913 75.7038 34.0389 75.4183 34.2525 75.2051C34.4661 74.9919 34.7518 74.8665 35.0533 74.8536C38.2363 74.7013 44.1939 75.0323 48.2564 78.9466C50.9986 81.5872 52.5017 85.5177 52.7414 90.6323C51.1406 88.2943 48.8572 86.5074 46.2028 85.5156ZM66.5011 89.2023C64.1225 91.6723 60.6958 93.1369 56.3022 93.5777C56.3791 93.2362 56.4199 92.8876 56.4241 92.5377C56.4708 88.1725 55.768 84.4269 54.3278 81.3333C54.8681 80.4631 55.5128 79.6623 56.2474 78.9486C59.8427 75.4833 64.9167 74.8272 68.2439 74.8272C68.6746 74.8272 69.0767 74.8272 69.4424 74.8556C69.7439 74.8685 70.0296 74.994 70.2432 75.2072C70.4568 75.4204 70.5827 75.7059 70.5961 76.0073C70.7464 79.1984 70.4174 85.148 66.5011 89.2084V89.2023Z" fill="white"/>
</svg>
