<!DOCTYPE svg PUBLIC "-//W3C//DTD SVG 1.1//EN" "http://www.w3.org/Graphics/SVG/1.1/DTD/svg11.dtd">
<!-- Uploaded to: SVG Repo, www.svgrepo.com, Transformed by: SVG Repo Mixer Tools -->
<svg width="64px" height="64px" viewBox="-3.84 -3.84 23.68 23.68" xmlns="http://www.w3.org/2000/svg" fill="#000000">
<g id="SVGRepo_bgCarrier" stroke-width="0"/>
<g id="SVGRepo_tracerCarrier" stroke-linecap="round" stroke-linejoin="round"/>
<g id="SVGRepo_iconCarrier"> <g fill="#ffffff" stroke-width=".82858px" color="#000000"> <path d="M8.04 10.471 2.938 7.953l2.085-1.03-.932-.46-3.017 1.49L8.04 11.39l6.965-3.437-3.017-1.49-.93.46 2.084 1.03z" style="-inkscape-stroke:none" transform="matrix(1.1485 0 0 1.2471 -1.233 -1.917)"/> <path d="M8.04 13.448 2.938 10.93 5.023 9.9l-.932-.46-3.017 1.49 6.966 3.437 6.965-3.437-3.017-1.49-.93.46 2.084 1.03z" style="-inkscape-stroke:none" transform="matrix(1.1485 0 0 1.2471 -1.233 -1.917)"/> <path d="M8.04 1.537 1.074 4.974 8.04 8.41l6.965-3.437zm0 .919 5.102 2.518L8.04 7.492 2.938 4.974z" style="-inkscape-stroke:none" transform="matrix(1.1485 0 0 1.2471 -1.233 -1.917)"/> </g> </g>
</svg>