<svg xmlns="http://www.w3.org/2000/svg" xmlns:xlink="http://www.w3.org/1999/xlink" width="2000" zoomAndPan="magnify" viewBox="0 0 1500 1499.999933" height="2000" preserveAspectRatio="xMidYMid meet" version="1.0"><defs><clipPath id="562f84dd3e"><path d="M 259.492188 72.839844 L 1240.492188 72.839844 L 1240.492188 1061 L 259.492188 1061 Z M 259.492188 72.839844 " clip-rule="nonzero"/></clipPath><clipPath id="46396e62a2"><path d="M 259.492188 480 L 1240.492188 480 L 1240.492188 1427.339844 L 259.492188 1427.339844 Z M 259.492188 480 " clip-rule="nonzero"/></clipPath></defs><path fill="#f2ae2e" d="M 545.945312 1238.78125 L 716.199219 854.394531 L 429.148438 770.351562 L 483.21875 669 L 789.585938 93.96875 L 699.515625 597.777344 L 1042.800781 701.910156 L 477.039062 1394.511719 Z M 545.945312 1238.78125 " fill-opacity="1" fill-rule="nonzero"/><g clip-path="url(#562f84dd3e)"><path fill="#000559" d="M 1523.59375 72.03125 C 1541.511719 74.503906 1554.183594 91.035156 1551.710938 108.957031 L 1534.40625 236.722656 C 1530.699219 264.378906 1505.824219 284 1478.015625 281.527344 L 1343.605469 269.167969 C 1327.382812 267.621094 1315.332031 254.027344 1315.332031 238.269531 C 1315.332031 236.878906 1315.488281 235.488281 1315.640625 234.097656 C 1317.957031 217.101562 1333.5625 205.050781 1350.558594 207.371094 L 1419.152344 216.792969 C 1249.671875 10.234375 987.339844 -117.226562 695.960938 -101.777344 C 254.414062 -78.445312 -103.863281 278.902344 -128.425781 720.449219 C -134.453125 826.433594 -121.320312 928.707031 -92.429688 1024.03125 L -169.675781 1060.183594 C -201.8125 958.988281 -217.570312 850.535156 -213.863281 737.90625 C -197.484375 246.148438 196.324219 -158.011719 687.464844 -185.976562 C 1005.570312 -204.050781 1292.3125 -66.859375 1479.097656 156.695312 C 1479.097656 156.695312 1483.421875 125.488281 1486.820312 99.996094 C 1489.140625 83.617188 1503.042969 71.722656 1519.113281 71.722656 C 1520.503906 71.722656 1522.046875 71.878906 1523.59375 72.03125 Z M 1523.59375 72.03125 " fill-opacity="1" fill-rule="nonzero"/></g><g clip-path="url(#46396e62a2)"><path fill="#010326" d="M 1656.765625 480.515625 C 1688.902344 581.710938 1704.660156 690.167969 1700.953125 802.792969 C 1684.574219 1294.554688 1290.765625 1698.710938 799.628906 1726.675781 C 481.519531 1744.753906 194.777344 1607.5625 7.992188 1384.003906 C 7.992188 1384.003906 3.511719 1416.605469 0.113281 1442.25 C -2.203125 1459.246094 -17.960938 1471.140625 -34.957031 1468.824219 L -38.203125 1468.359375 C -55.195312 1466.042969 -67.09375 1450.4375 -64.929688 1433.445312 L -47.316406 1303.976562 C -43.609375 1276.324219 -18.734375 1256.703125 9.074219 1259.171875 L 143.484375 1271.535156 C 159.707031 1273.078125 171.757812 1286.675781 171.757812 1302.433594 C 171.757812 1303.824219 171.601562 1305.214844 171.449219 1306.605469 C 169.132812 1323.597656 153.527344 1335.648438 136.53125 1333.332031 L 67.9375 1323.90625 C 237.417969 1530.46875 499.75 1657.925781 791.128906 1642.476562 C 1232.675781 1619.148438 1590.953125 1261.800781 1615.515625 820.253906 C 1621.542969 714.269531 1608.410156 611.992188 1579.519531 516.667969 Z M 1656.765625 480.515625 " fill-opacity="1" fill-rule="nonzero"/></g></svg>