<svg width="79" height="79" viewBox="0 0 79 79" fill="none" xmlns="http://www.w3.org/2000/svg">
<path d="M10.9273 40.9643C12.6523 40.9643 14.0179 42.356 14.0179 44.0408C14.0179 44.0794 14.0179 44.1196 14.0148 44.1582C13.9932 44.5578 13.862 44.9527 13.7309 45.2861C13.7371 45.2892 13.7448 45.2907 13.7509 45.2938C13.2726 46.3633 12.1972 47.1176 10.9273 47.1176C9.27324 47.1176 7.90771 45.7257 7.90771 44.0409C7.90771 43.4207 8.09287 42.8407 8.40918 42.3545L8.41072 42.356C8.51873 42.1911 8.63908 42.0397 8.77023 41.9008C8.85818 41.8098 8.95076 41.7236 9.04643 41.6449C9.0958 41.6046 9.14363 41.566 9.19455 41.5307C9.29484 41.4566 9.39977 41.3918 9.50777 41.3316C9.55098 41.307 9.59572 41.2837 9.64201 41.2622C9.66979 41.2483 9.69756 41.2344 9.72688 41.2221C9.74539 41.2127 9.76545 41.2051 9.78551 41.1974C9.81637 41.1835 9.84723 41.1712 9.87809 41.1588C9.92283 41.1419 9.96758 41.1264 10.0139 41.111C10.0679 41.0925 10.1219 41.0755 10.1774 41.0616C10.2268 41.0493 10.2777 41.0369 10.3286 41.0261C10.3641 41.0184 10.4012 41.0122 10.4366 41.0061C10.4598 41.0016 10.4829 40.9984 10.5076 40.9954C10.5323 40.9908 10.557 40.9876 10.5817 40.9846C10.6203 40.98 10.6588 40.9769 10.6974 40.9738C10.719 40.9723 10.7406 40.9707 10.7622 40.9707C10.8162 40.9658 10.8718 40.9643 10.9273 40.9643Z" fill="white" stroke="white" stroke-width="1.5625"/>
<path d="M8.47861 45.5647C8.47861 44.9444 8.66377 44.3644 8.98008 43.8782L8.98162 43.8797C9.08963 43.7148 9.20998 43.5634 9.34113 43.4246C9.42908 43.3335 9.52166 43.2473 9.61732 43.1686C9.6667 43.1283 9.71453 43.0897 9.76545 43.0544C9.86574 42.9803 9.97066 42.9155 10.0787 42.8554C10.1219 42.8307 10.1666 42.8074 10.2129 42.7859C10.2407 42.772 10.2685 42.7581 10.2978 42.7458C10.3163 42.7364 10.3363 42.7288 10.3564 42.7211C10.3873 42.7072 10.4181 42.6949 10.449 42.6825C10.4937 42.6656 10.5385 42.6501 10.5848 42.6347C10.6388 42.6162 10.6928 42.5992 10.7483 42.5853C10.7977 42.573 10.8486 42.5606 10.8995 42.5498C10.935 42.5421 10.9721 42.536 11.0075 42.5298C11.0307 42.5253 11.0538 42.5221 11.0785 42.5191C11.1032 42.5145 11.1279 42.5113 11.1526 42.5083C11.1912 42.5037 11.2297 42.5006 11.2683 42.4975C11.2899 42.496 11.3115 42.4945 11.3331 42.4945C11.3871 42.4898 11.4427 42.4883 11.4982 42.4883C12.5388 42.4883 13.446 42.9967 14.0041 43.7683C13.8659 42.2088 12.5581 40.9646 10.9273 40.9646C10.8718 40.9646 10.8162 40.9661 10.7622 40.9708C10.7406 40.9708 10.719 40.9723 10.6974 40.9739C10.6588 40.9771 10.6203 40.98 10.5817 40.9847C10.557 40.9877 10.5323 40.9908 10.5076 40.9955C10.4829 40.9985 10.4598 41.0016 10.4366 41.0061C10.4012 41.0123 10.3641 41.0184 10.3286 41.0262C10.2777 41.037 10.2268 41.0493 10.1774 41.0617C10.1219 41.0755 10.0679 41.0925 10.0139 41.111C9.96758 41.1265 9.92283 41.1417 9.87809 41.1589C9.84723 41.1712 9.81637 41.1835 9.78551 41.1974C9.76545 41.2051 9.74539 41.2129 9.72688 41.2221C9.69756 41.2345 9.66979 41.2483 9.64201 41.2622C9.59572 41.2838 9.55098 41.307 9.50777 41.3317C9.39977 41.3918 9.29484 41.4567 9.19455 41.5307C9.14363 41.566 9.0958 41.6046 9.04643 41.6449C8.95076 41.7236 8.85818 41.8098 8.77023 41.9009C8.63908 42.0397 8.51873 42.1911 8.41072 42.356L8.40918 42.3545C8.09287 42.8405 7.90771 43.4207 7.90771 44.041C7.90771 44.7125 8.12713 45.3354 8.49281 45.8442C8.48432 45.752 8.47861 45.6589 8.47861 45.5647Z" fill="white" stroke="white" stroke-width="1.5625"/>
<path d="M43.7046 69.5293C44.2308 70.0307 44.5671 70.739 44.5671 71.5074C44.5671 72.9715 43.3451 74.2168 41.9087 74.2168C40.7129 74.2168 39.744 73.4361 39.392 72.3853C39.3905 72.3838 39.3905 72.3807 39.3905 72.3791C39.3272 72.1247 39.2655 71.8715 39.2516 71.6171C39.2485 71.5816 39.2485 71.5444 39.2485 71.5075C39.2485 70.0417 40.398 68.7965 41.9086 68.7965C42.0012 68.7965 42.092 68.8011 42.1831 68.8119C42.751 68.8752 43.2726 69.1313 43.6844 69.5109C43.6907 69.5185 43.6969 69.5246 43.7046 69.5293Z" fill="white" stroke="white" stroke-width="1.5625"/>
<path d="M43.7046 69.5293C43.6969 69.5246 43.6907 69.5185 43.6845 69.5108C43.2726 69.1312 42.751 68.875 42.1832 68.8118C42.0922 68.8011 42.0012 68.7964 41.9087 68.7964C40.7998 68.7964 39.8875 69.4685 39.4796 70.4054C39.8973 70.1218 40.401 69.9536 40.954 69.9536C41.0465 69.9536 41.1374 69.9582 41.2284 69.969C41.7964 70.0323 42.3179 70.2884 42.7298 70.668C42.7359 70.6757 42.7421 70.6819 42.7498 70.6865C43.276 71.188 43.6123 71.8962 43.6123 72.6646C43.6123 73.0466 43.5276 73.4128 43.379 73.7467C44.0888 73.2534 44.567 72.4233 44.567 71.5074C44.5671 70.739 44.2308 70.0307 43.7046 69.5293Z" fill="white" stroke="white" stroke-width="1.5625"/>
<path d="M70.4458 33.2741C70.4458 33.7108 70.3162 34.1166 70.0941 34.453C70.0909 34.4514 70.0895 34.4483 70.0864 34.4468C69.9952 34.5934 69.8889 34.7261 69.767 34.8418C69.7408 34.8665 69.7146 34.8896 69.6866 34.9128C69.6604 34.9344 69.6342 34.956 69.6079 34.976C69.5817 34.9961 69.5539 35.0161 69.5262 35.0362C69.3595 35.1504 69.1759 35.2414 68.98 35.3031C68.9045 35.3278 68.8257 35.3479 68.747 35.3618C68.7146 35.3695 68.6822 35.3741 68.6498 35.3787C68.6343 35.3803 68.6206 35.3818 68.6066 35.3834C68.5759 35.388 68.545 35.3911 68.514 35.3926C68.4631 35.3973 68.4121 35.3988 68.3612 35.3988C67.2102 35.3988 66.2767 34.4468 66.2767 33.2741C66.2767 33.2325 66.2782 33.1908 66.2813 33.1491C66.2844 33.0859 66.2919 33.0195 66.3014 32.9516C66.3029 32.9378 66.3044 32.9239 66.3075 32.9115C66.3199 32.8452 66.3338 32.7773 66.3523 32.7094C66.5944 31.8114 67.403 31.151 68.3612 31.151C69.5107 31.151 70.4458 32.103 70.4458 33.2741Z" fill="white" stroke="white" stroke-width="1.5625"/>
<path d="M68.2711 32.488C69.2413 32.488 70.0563 33.1672 70.2876 34.0828C70.3888 33.8336 70.4456 33.5607 70.4456 33.274C70.4456 32.1029 69.5106 31.1508 68.3611 31.1508C67.4029 31.1508 66.5944 31.8112 66.3521 32.7092C66.3336 32.7771 66.3197 32.845 66.3074 32.9114C66.3041 32.9237 66.3028 32.9376 66.3012 32.9515C66.2918 33.0194 66.2842 33.0857 66.2811 33.149C66.2779 33.1907 66.2765 33.2323 66.2765 33.274C66.2765 33.4576 66.3018 33.6347 66.3447 33.8048C66.6566 33.0328 67.4013 32.488 68.2711 32.488Z" fill="white" stroke="white" stroke-width="1.5625"/>
<path d="M37.4509 7.42014C37.4509 8.59125 36.5174 9.54326 35.3664 9.54326C35.3355 9.54326 35.3062 9.54326 35.2753 9.54018C35.2599 9.54018 35.2445 9.53864 35.2275 9.53709C34.9714 9.51395 34.6936 9.43063 34.4637 9.33342C33.7648 8.99088 33.2818 8.2626 33.2818 7.42014C33.2818 6.24748 34.2169 5.29547 35.3664 5.29547C36.4449 5.29547 37.3321 6.13176 37.4401 7.20104C37.4478 7.27356 37.4509 7.34608 37.4509 7.42014Z" fill="white" stroke="white" stroke-width="1.5625"/>
<path d="M35.5077 6.76129C36.3315 6.76129 37.0424 7.24995 37.3809 7.95678C37.425 7.78505 37.4509 7.60591 37.4509 7.42014C37.4509 7.34608 37.4478 7.27356 37.4401 7.20104C37.3321 6.13176 36.4449 5.29547 35.3664 5.29547C34.2169 5.29547 33.2818 6.24748 33.2818 7.42014C33.2818 7.75358 33.3585 8.0685 33.4932 8.34916C33.7273 7.43665 34.5403 6.76129 35.5077 6.76129Z" fill="white" stroke="white" stroke-width="1.5625"/>
<path d="M39.4769 34.1922C41.853 34.1922 43.8111 36.1873 43.8111 38.5603C43.8111 40.9828 41.853 42.9763 39.4769 42.9763C37.147 42.9763 35.1889 40.9828 35.1889 38.5603C35.1889 36.1873 37.147 34.1922 39.4769 34.1922Z" fill="white" stroke="white" stroke-width="1.5625"/>
<path d="M36.033 40.5662C36.033 38.1931 37.991 36.1981 40.321 36.1981C41.7183 36.1981 42.9704 36.8884 43.7654 37.9393C43.46 35.8493 41.6424 34.1922 39.477 34.1922C37.1471 34.1922 35.1891 36.1873 35.1891 38.5603C35.1891 39.563 35.5252 40.4917 36.0836 41.2365C36.0502 41.0177 36.033 40.7938 36.033 40.5662Z" fill="white" stroke="white" stroke-width="1.5625"/>
<path d="M8.41057 43.1275C8.22109 43.1275 8.03763 43.0576 7.89583 42.9306C6.36413 41.6117 5.55469 40.0965 5.55469 38.548C5.55469 34.8205 10.5153 31.4537 19.1649 29.3112C22.2607 28.5452 25.6989 27.9648 29.3841 27.5861C31.2388 27.3953 33.182 27.2559 35.1595 27.1723C36.6005 27.1135 38.0485 27.0836 39.4645 27.0836C40.9123 27.0836 42.3803 27.114 43.8274 27.1737C45.7692 27.255 47.6949 27.3917 49.5515 27.5797C53.2631 27.9554 56.7248 28.5346 59.8403 29.3015C62.4936 29.9558 64.8376 30.7352 66.8067 31.6179C66.9973 31.7034 67.1451 31.8623 67.2164 32.0587C67.2876 32.2552 67.2762 32.4719 67.1847 32.6599C67.1519 32.7272 67.1228 32.8095 67.1003 32.8981C67.0838 32.9595 67.0746 33.0067 67.0659 33.0526C66.9878 33.4715 66.5851 33.7478 66.1662 33.6698C65.7473 33.5917 65.4711 33.1888 65.5492 32.7699C65.5499 32.7651 65.5509 32.7603 65.552 32.7554C63.7998 32.0205 61.7578 31.3635 59.4711 30.7995C56.4259 30.0499 53.036 29.4831 49.396 29.1147C47.5696 28.9297 45.6745 28.7954 43.7634 28.7153C42.3377 28.6563 40.8913 28.6264 39.4645 28.6264C38.0694 28.6264 36.6424 28.6557 35.2235 28.7137C33.278 28.7961 31.3661 28.933 29.542 29.1208C25.9282 29.4922 22.5616 30.0601 19.5357 30.8088C11.8637 32.7094 7.09766 35.6748 7.09766 38.548C7.09766 39.4485 7.52706 40.3664 8.34777 41.2337C8.41767 41.1673 8.48695 41.1059 8.55653 41.0488C8.62103 40.9964 8.68136 40.9486 8.74462 40.904C8.8605 40.8189 8.98764 40.7382 9.13283 40.6574C9.505 40.45 9.97483 40.5841 10.1821 40.9564C10.3893 41.3287 10.2553 41.7986 9.88302 42.0058C9.79276 42.0561 9.71746 42.1036 9.65297 42.1511C9.6471 42.1555 9.64109 42.1599 9.63507 42.1641C9.59989 42.1883 9.56749 42.2155 9.53354 42.2433C9.46627 42.2985 9.39514 42.3645 9.32493 42.4372C9.22927 42.5386 9.13669 42.6558 9.05615 42.7788C8.92885 42.9731 8.72101 43.0998 8.48988 43.1235C8.46349 43.1261 8.43695 43.1275 8.41057 43.1275Z" fill="white" stroke="white" stroke-width="1.5625"/>
<path d="M9.64263 42.0337C9.35965 42.0337 9.08717 41.8774 8.952 41.6071C8.76145 41.226 8.9159 40.7625 9.29701 40.5721C9.33944 40.5508 9.38218 40.5301 9.42708 40.511C9.81961 40.3454 10.272 40.5296 10.4374 40.922C10.603 41.3145 10.4189 41.7671 10.0265 41.9328C10.0128 41.9385 9.99999 41.9455 9.98703 41.9519C9.87639 42.0075 9.75867 42.0337 9.64263 42.0337Z" fill="white" stroke="white" stroke-width="1.5625"/>
<path d="M9.78598 41.9689C9.49142 41.9689 9.21014 41.7993 9.08177 41.5131C8.90726 41.1244 9.08099 40.6679 9.46967 40.4935C9.5104 40.4753 9.55098 40.4587 9.59172 40.4425C9.98718 40.2843 10.4362 40.4767 10.5946 40.8722C10.7528 41.2678 10.5604 41.7169 10.1648 41.8751C10.1436 41.8836 10.1227 41.8916 10.1015 41.9012C9.99891 41.9472 9.89152 41.9689 9.78598 41.9689Z" fill="white" stroke="white" stroke-width="1.5625"/>
<path d="M10.0137 41.8825C9.69324 41.8825 9.39391 41.6813 9.28405 41.3613C9.1458 40.9583 9.36043 40.5194 9.76345 40.381C9.83844 40.3553 9.91343 40.3321 9.99057 40.3128C10.4035 40.2107 10.8227 40.4611 10.9259 40.8746C11.0291 41.288 10.7776 41.7069 10.3643 41.8101C10.3303 41.8186 10.2973 41.8294 10.2643 41.8407C10.1813 41.8691 10.0969 41.8825 10.0137 41.8825Z" fill="white" stroke="white" stroke-width="1.5625"/>
<path d="M10.3279 41.7976C9.97251 41.7976 9.65281 41.5506 9.57458 41.1894C9.48447 40.773 9.74878 40.3622 10.1654 40.2721C10.2066 40.2632 10.2492 40.2556 10.2908 40.2483C10.3229 40.2422 10.3567 40.2371 10.3922 40.2323C10.4243 40.2269 10.4562 40.2226 10.4883 40.2187C10.5343 40.2132 10.5797 40.2092 10.625 40.2055C10.6281 40.2053 10.6411 40.2042 10.6442 40.2039C10.6837 40.2011 10.723 40.1991 10.7624 40.1991C11.1884 40.1991 11.5338 40.5444 11.5338 40.9706C11.5338 41.3945 11.1921 41.7385 10.7691 41.7421L10.7514 41.7433C10.7253 41.7455 10.7 41.7472 10.6746 41.7504L10.6497 41.7537C10.6331 41.7569 10.6179 41.7592 10.6011 41.7612L10.5823 41.7639C10.5769 41.7649 10.5595 41.7679 10.5539 41.7688C10.5334 41.7723 10.5121 41.7759 10.4919 41.7802C10.4369 41.7919 10.382 41.7976 10.3279 41.7976Z" fill="white" stroke="white" stroke-width="1.5625"/>
<path d="M39.4645 50.0123C37.9833 50.0123 36.5066 49.9809 35.0754 49.9191C33.1525 49.838 31.2348 49.7004 29.3766 49.51C25.7046 49.1355 22.2748 48.5592 19.1828 47.7973C17.0804 47.2803 15.1589 46.6802 13.4724 46.0133C13.4433 46.0027 13.4152 45.9907 13.3893 45.978C13.0298 45.8004 12.8662 45.377 13.0129 45.0039C13.1043 44.7717 13.2276 44.4272 13.2444 44.1167C13.245 44.0991 13.2464 44.0695 13.2464 44.0411C13.2464 43.6149 13.5919 43.2696 14.0179 43.2696C14.4439 43.2696 14.7894 43.6149 14.7894 44.0411C14.7894 44.0894 14.7877 44.1396 14.7858 44.1878C14.7736 44.4128 14.7377 44.6276 14.6897 44.8276C16.1512 45.3702 17.783 45.8643 19.5516 46.2991C22.5743 47.0439 25.9325 47.6077 29.5335 47.9749C31.3616 48.1622 33.2482 48.2977 35.1411 48.3775C37.9461 48.4986 40.9029 48.5 43.8467 48.3773C45.7469 48.2951 47.6169 48.1613 49.4034 47.9794C53.0422 47.6114 56.4221 47.0467 59.4495 46.3006C67.2472 44.3835 71.9023 41.4853 71.9023 38.548C71.9023 37.5258 71.3188 36.5032 70.1659 35.5022C69.8625 35.6859 69.4615 35.6407 69.2074 35.3729C68.9141 35.064 68.9267 34.5756 69.2358 34.2821C69.3077 34.2139 69.3736 34.1322 69.4313 34.0393C69.6417 33.7009 70.0753 33.5786 70.4314 33.7566C70.479 33.7804 70.5251 33.81 70.5677 33.8438C72.4773 35.2877 73.4453 36.8703 73.4453 38.548C73.4453 40.5287 72.1318 42.3705 69.5411 44.0226C67.2279 45.498 63.8658 46.8036 59.8183 47.7989C56.7212 48.562 53.2693 49.1394 49.5591 49.5145C47.7435 49.6992 45.8436 49.8353 43.9123 49.9189C42.4256 49.9809 40.9297 50.0123 39.4645 50.0123Z" fill="white" stroke="white" stroke-width="1.5625"/>
<path d="M68.9796 36.0748C68.6496 36.0748 68.3443 35.8612 68.2424 35.5292C68.1174 35.1218 68.3464 34.6903 68.7538 34.5654C68.8716 34.5293 68.9823 34.4752 69.0832 34.4045C69.0924 34.398 69.1017 34.3917 69.1113 34.3857C69.1285 34.3712 69.1464 34.3575 69.1648 34.3445C69.4754 34.059 69.9585 34.0759 70.2483 34.3837C70.5405 34.6938 70.5259 35.1822 70.2156 35.4743C70.1719 35.5154 70.1262 35.5534 70.0796 35.5874C70.0387 35.6207 69.9958 35.6517 69.9511 35.6802C69.7226 35.8378 69.472 35.9591 69.2062 36.0405C69.1307 36.0638 69.0545 36.0748 68.9796 36.0748Z" fill="white" stroke="white" stroke-width="1.5625"/>
<path d="M68.651 36.1501C68.2736 36.1501 67.9428 35.8731 67.8874 35.4887C67.8266 35.0671 68.1181 34.6761 68.5397 34.6153L68.5422 34.615L68.5749 34.61C68.9889 34.5119 69.4023 34.7685 69.5007 35.1832C69.5992 35.5978 69.3398 36.0143 68.9253 36.1126C68.8709 36.1254 68.8167 36.1343 68.7624 36.142C68.7247 36.1473 68.6877 36.1501 68.651 36.1501Z" fill="white" stroke="white" stroke-width="1.5625"/>
<path d="M68.5134 36.1641C68.1046 36.1641 67.7636 35.843 67.7434 35.4303C67.7226 35.0047 68.0508 34.6429 68.4765 34.6221L68.4907 34.6207C68.9127 34.5572 69.3054 34.8464 69.3693 35.2675C69.4333 35.6887 69.1437 36.082 68.7224 36.146C68.6658 36.1547 68.6087 36.1604 68.5516 36.1632C68.5388 36.1638 68.526 36.1641 68.5134 36.1641Z" fill="white" stroke="white" stroke-width="1.5625"/>
<path d="M66.2819 33.9206C66.2696 33.9206 66.2571 33.9203 66.2446 33.9197C65.819 33.8995 65.4904 33.538 65.5108 33.1124C65.5145 33.0339 65.5226 32.9518 65.5371 32.8466C65.5952 32.4246 65.9829 32.1286 66.4066 32.1876C66.8286 32.2456 67.1238 32.6349 67.0656 33.057C67.0596 33.1015 67.0539 33.1447 67.0519 33.186C67.0323 33.5989 66.6913 33.9206 66.2819 33.9206Z" fill="white" stroke="white" stroke-width="1.5625"/>
<path d="M43.704 70.3007C43.5478 70.3007 43.3906 70.2535 43.2542 70.1557C42.9083 69.907 42.8294 69.4249 43.0782 69.0789C44.6474 66.8968 46.0309 63.3895 47.0795 58.936C47.8067 55.8544 48.3563 52.4017 48.7135 48.6734C48.8922 46.8212 49.0215 44.9164 49.0979 43.0118C49.157 41.5322 49.1868 40.0303 49.1868 38.548C49.1868 37.0859 49.157 35.6038 49.0979 34.1431C49.0187 32.1919 48.887 30.2673 48.7058 28.4229C48.3454 24.7363 47.7938 21.311 47.066 18.2416C45.2138 10.4158 42.301 5.55469 39.4645 5.55469C38.9257 5.55469 38.415 5.70914 37.8932 6.03455C38.0643 6.36073 38.1724 6.73244 38.2084 7.13145C38.2468 7.55576 37.9341 7.93101 37.5097 7.96943C37.086 8.00971 36.7103 7.69509 36.6717 7.27078C36.6412 6.93302 36.508 6.64155 36.3065 6.47121C36.1333 6.32494 36.0333 6.10985 36.033 5.88303C36.0327 5.65621 36.1322 5.44082 36.305 5.29393C37.3204 4.43125 38.3539 4.01172 39.4647 4.01172C43.2172 4.01172 46.45 8.93903 48.5676 17.8858C49.3113 21.0225 49.8746 24.5172 50.2419 28.2724C50.4256 30.1459 50.5597 32.1001 50.6399 34.0808C50.6998 35.5625 50.73 37.0653 50.73 38.5481C50.73 40.0508 50.6998 41.5733 50.6399 43.0735C50.5623 45.0072 50.431 46.9408 50.2497 48.8211C49.886 52.6185 49.3249 56.1409 48.5816 59.2901C47.4872 63.9385 46.0174 67.6351 44.3312 69.9798C44.1803 70.1892 43.9438 70.3007 43.704 70.3007Z" fill="white" stroke="white" stroke-width="1.5625"/>
<path d="M39.3923 73.1568C39.3857 73.1568 39.3792 73.1566 39.3726 73.1565C35.6852 73.0633 32.4934 68.1404 30.3851 59.2946C29.6296 56.1241 29.0584 52.5992 28.6875 48.8178C28.5017 46.9167 28.3673 44.9573 28.2879 42.9937C28.228 41.5201 28.1978 40.0243 28.1978 38.548C28.1978 37.0672 28.2275 35.5915 28.2863 34.1619C28.3684 32.1501 28.506 30.1698 28.6954 28.2768C29.0681 24.5253 29.6394 21.027 30.3929 17.8793C31.271 14.2115 32.3537 11.1842 33.6106 8.88194C33.8112 8.5141 34.2687 8.37384 34.6412 8.56594C34.6795 8.58554 34.7222 8.60513 34.766 8.6238C34.9482 8.7008 35.1474 8.75527 35.2968 8.76869C35.298 8.769 35.2865 8.76869 35.2752 8.76869C35.7012 8.76869 36.0467 9.11416 36.0467 9.54017C36.0467 9.96619 35.7012 10.3117 35.2752 10.3117C35.2391 10.3117 35.2028 10.3095 35.1638 10.3059C34.9834 10.2896 34.8098 10.2544 34.6551 10.2129C33.6034 12.3056 32.6538 15.0622 31.8935 18.2385C31.1561 21.3184 30.5966 24.7474 30.2306 28.4298C30.0442 30.2934 29.9088 32.2431 29.8279 34.225C29.77 35.6339 29.7407 37.0882 29.7407 38.548C29.7407 40.0035 29.7707 41.4781 29.8296 42.9311C29.9077 44.8657 30.0401 46.7956 30.2231 48.6674C30.5874 52.3792 31.1468 55.8343 31.8861 58.9369C33.7328 66.6859 36.6165 71.5434 39.4114 71.6141C39.8373 71.6248 40.174 71.9787 40.1632 72.4047C40.1525 72.8241 39.8094 73.1568 39.3923 73.1568Z" fill="white" stroke="white" stroke-width="1.5625"/>
<path d="M39.3898 73.1508C39.0437 73.1508 38.729 72.9162 38.6418 72.5654C38.5784 72.3103 38.4995 71.9929 38.4812 71.6589C38.458 71.2335 38.7841 70.8698 39.2096 70.8466C39.635 70.8204 39.9987 71.1495 40.022 71.5751C40.0322 71.7629 40.0866 71.9815 40.1392 72.1929C40.242 72.6066 39.9902 73.025 39.5767 73.1279C39.5142 73.1434 39.4515 73.1508 39.3898 73.1508Z" fill="white" stroke="white" stroke-width="1.5625"/>
<path d="M43.6845 70.2822C43.4872 70.2822 43.2895 70.2069 43.1391 70.0562C42.8768 69.794 42.4994 69.62 42.1038 69.5791C41.6799 69.5353 41.3719 69.1562 41.4157 68.7323C41.4597 68.3086 41.8385 68.0023 42.2625 68.0443C43.0153 68.1222 43.714 68.4492 44.23 68.9653C44.5313 69.2665 44.5313 69.755 44.23 70.0562C44.0795 70.2069 43.8819 70.2822 43.6845 70.2822Z" fill="white" stroke="white" stroke-width="1.5625"/>
<path d="M19.3548 64.4427C17.6982 64.4427 16.3942 63.9701 15.4794 63.0383C14.1075 61.6401 13.7605 59.39 14.4476 56.3502C15.062 53.6322 16.5343 50.2784 18.7053 46.6518C20.3601 43.8867 22.3851 41.0053 24.7242 38.0883C25.9165 36.6022 27.1816 35.1177 28.4847 33.6762C29.4769 32.5775 30.4945 31.4965 31.5094 30.4636C32.5411 29.4122 33.6026 28.3746 34.6646 27.38C36.0778 26.0533 37.5341 24.7645 38.9924 23.55C41.8567 21.1646 44.6887 19.0981 47.4097 17.4081C52.3427 14.3453 56.572 12.7264 59.6405 12.7264C61.3009 12.7264 62.6064 13.1987 63.5206 14.13C66.1477 16.8077 65.0102 22.6025 60.3179 30.4469C58.6617 33.2189 56.6288 36.1146 54.2761 39.0533C53.0662 40.564 51.7762 42.08 50.4417 43.5594C49.4841 44.6225 48.4916 45.6808 47.4923 46.7047C46.4876 47.7229 45.4505 48.7336 44.4063 49.7114C42.9555 51.0695 41.4665 52.3841 39.9808 53.6189C37.1039 56.0107 34.265 58.0806 31.5426 59.7712C26.623 62.8274 22.4085 64.4427 19.3548 64.4427ZM59.6404 14.2694C56.8994 14.2694 52.845 15.8497 48.2236 18.719C45.5632 20.3714 42.7894 22.3957 39.9799 24.7358C38.5449 25.931 37.1118 27.1993 35.72 28.5057C34.6733 29.4861 33.6273 30.5084 32.6105 31.5448C31.6105 32.5627 30.6077 33.6278 29.6298 34.7108C28.3466 36.1303 27.1013 37.5914 25.9282 39.0539C23.6329 41.9163 21.6483 44.7393 20.0294 47.4444C15.895 54.3511 14.5736 59.9123 16.5806 61.9578C17.1944 62.583 18.1277 62.8999 19.3548 62.8999C22.081 62.8999 26.1201 61.3233 30.7284 58.4606C33.3909 56.8073 36.172 54.7793 38.9944 52.4327C40.4569 51.217 41.9229 49.9225 43.3517 48.5852C44.3809 47.6213 45.4034 46.625 46.3909 45.6241C47.3731 44.6179 48.3514 43.5748 49.2955 42.5265C50.6103 41.0692 51.8805 39.5762 53.0716 38.0891C55.3805 35.2052 57.373 32.3676 58.9936 29.6554C63.1671 22.6783 64.4478 17.2786 62.4194 15.2111C61.8061 14.5861 60.8712 14.2694 59.6404 14.2694Z" fill="white" stroke="white" stroke-width="1.5625"/>
<path d="M59.6399 64.4422C56.5739 64.4422 52.3495 62.826 47.4236 59.7681C44.7003 58.0786 41.864 56.0095 38.9938 53.6185C37.5162 52.3904 36.0309 51.0754 34.5799 49.7101C33.5653 48.7584 32.5318 47.7475 31.5093 46.7063C30.4511 45.6213 29.434 44.5356 28.4844 43.4778C27.1848 42.0356 25.9193 40.5466 24.7238 39.0532C22.3684 36.1104 20.3376 33.2178 18.6878 30.4556C13.9907 22.6067 12.8509 16.8086 15.4789 14.1302C16.3934 13.1987 17.6968 12.7266 19.3527 12.7266C22.4084 12.7266 26.6262 14.3437 31.5502 17.4036C34.2669 19.091 37.1027 21.1587 39.9789 23.5496C41.4261 24.7523 42.8873 26.0413 44.3218 27.3809C45.3881 28.3766 46.4535 29.4135 47.4889 30.4625C48.5188 31.5127 49.5114 32.5659 50.4409 33.5948C51.7674 35.0592 53.0576 36.5713 54.2752 38.0883C56.6188 41.0106 58.6444 43.8924 60.296 46.6538C62.4666 50.28 63.9386 53.6333 64.5529 56.3514C65.2395 59.3904 64.8922 61.6402 63.5206 63.0385C62.6061 63.97 61.3005 64.4422 59.6399 64.4422ZM19.353 14.2695C18.1265 14.2695 17.1936 14.5863 16.5804 15.2111C14.5514 17.2792 15.8343 22.6823 20.0125 29.6639C21.6266 32.3666 23.617 35.201 25.9287 38.089C27.1053 39.5589 28.3513 41.0249 29.6319 42.4458C30.5682 43.4892 31.5705 44.5589 32.6122 45.6268C33.6182 46.6512 34.6364 47.6473 35.6366 48.5855C37.0655 49.9299 38.5267 51.2239 39.9808 52.4322C42.7969 54.7782 45.5745 56.805 48.2374 58.4571C52.8521 61.3218 56.9015 62.8993 59.6401 62.8993C60.871 62.8993 61.8061 62.5824 62.4197 61.9575C64.427 59.9118 63.106 54.3512 58.9724 47.446C57.3566 44.7446 55.3716 41.9211 53.0721 39.0538C51.8738 37.5608 50.6038 36.0723 49.2971 34.6298C48.3809 33.6157 47.4031 32.5779 46.3894 31.5445C45.3704 30.5119 44.3201 29.4898 43.269 28.5084C41.8563 27.1891 40.4176 25.9199 38.9931 24.736C36.1712 22.3903 33.3932 20.3643 30.7362 18.7141C26.1237 15.848 22.0811 14.2695 19.353 14.2695Z" fill="white" stroke="white" stroke-width="1.5625"/>
<path d="M35.3664 10.3147C35.324 10.3147 35.2829 10.3141 35.2414 10.3114C35.2172 10.3109 35.1859 10.3092 35.1493 10.305C34.7885 10.2786 34.4426 10.1844 34.1206 10.0244C33.1439 9.54558 32.5103 8.52274 32.5103 7.42014C32.5103 5.82317 33.7915 4.52399 35.3664 4.52399C36.8365 4.52399 38.0581 5.64156 38.2078 7.12358C38.2175 7.21477 38.2226 7.31337 38.2226 7.42014C38.2224 9.01619 36.9413 10.3147 35.3664 10.3147ZM35.3039 8.76931C35.3206 8.76993 35.3377 8.77101 35.3522 8.77255L35.3662 8.77178C36.0902 8.77178 36.6793 8.16539 36.6793 7.42014C36.6793 7.36876 36.6771 7.32386 36.6728 7.28312C36.6026 6.58786 36.0411 6.06696 35.3662 6.06696C34.6423 6.06696 34.0532 6.67396 34.0532 7.42014C34.0532 7.93827 34.3476 8.41736 34.803 8.64078C34.9524 8.71484 35.1101 8.75681 35.2753 8.76715C35.2851 8.76777 35.2945 8.76854 35.3039 8.76931Z" fill="white" stroke="white" stroke-width="1.5625"/>
<path d="M68.3612 36.1703C66.7865 36.1703 65.5052 34.8711 65.5052 33.2741C65.5052 33.2169 65.5072 33.1598 65.5112 33.1027C65.5157 33.0123 65.5242 32.928 65.5368 32.8466C65.5393 32.8268 65.5428 32.8006 65.5489 32.7703C65.563 32.6841 65.583 32.5961 65.6093 32.5017C65.9455 31.255 67.0779 30.3795 68.3612 30.3795C69.936 30.3795 71.2173 31.6781 71.2173 33.2741C71.2173 33.8484 71.0515 34.4031 70.738 34.878C70.6157 35.0677 70.4638 35.248 70.2912 35.4081C70.2581 35.4392 70.22 35.4729 70.1793 35.5065C70.1443 35.5355 70.1109 35.5627 70.0778 35.5881C70.0444 35.6136 70.0107 35.6381 69.9767 35.6625C69.9721 35.6659 69.9671 35.6691 69.9624 35.6725C69.7294 35.8322 69.4769 35.9555 69.2117 36.039C69.1088 36.0726 68.9951 36.1013 68.8817 36.1214C68.8477 36.1278 68.8039 36.1359 68.7601 36.1422C68.7485 36.1439 68.7369 36.1453 68.7252 36.1464L68.7036 36.1487C68.6587 36.155 68.6137 36.1595 68.5686 36.1621C68.4993 36.1681 68.4303 36.1703 68.3612 36.1703ZM67.0662 33.0512C67.065 33.0612 67.0634 33.0715 67.0623 33.0791C67.0574 33.1089 67.0539 33.1442 67.0522 33.1842C67.0517 33.192 67.0512 33.1998 67.0506 33.2075C67.0489 33.2297 67.0482 33.2519 67.0482 33.2741C67.0482 34.0203 67.6371 34.6273 68.3612 34.6273C68.3887 34.6273 68.416 34.6268 68.4435 34.6244C68.4544 34.6233 68.4655 34.6225 68.4765 34.6221C68.4874 34.6204 68.5127 34.6176 68.5242 34.6164L68.5509 34.6134C68.5681 34.6106 68.5854 34.6073 68.6025 34.6039C68.6539 34.5948 68.6979 34.5836 68.74 34.5698C68.8655 34.5303 68.9784 34.4753 69.0838 34.404C69.1029 34.3903 69.1218 34.3767 69.1396 34.363C69.1577 34.3491 69.1767 34.3334 69.196 34.3175C69.2092 34.3064 69.2236 34.2937 69.2378 34.2803C69.3209 34.2033 69.3893 34.1221 69.4461 34.0345C69.597 33.806 69.6743 33.5452 69.6743 33.2741C69.6743 32.5289 69.0853 31.9225 68.3612 31.9225C67.7738 31.9225 67.254 32.3286 67.0972 32.9103C67.0832 32.9608 67.0752 32.9964 67.0701 33.0291C67.069 33.0364 67.0676 33.0438 67.0662 33.0512Z" fill="white" stroke="white" stroke-width="1.5625"/>
<path d="M41.9086 74.9883C40.438 74.9883 39.1326 74.0406 38.6603 72.6303L38.6606 72.6302C38.6585 72.6237 38.6563 72.6171 38.6542 72.6104C38.5522 72.3037 38.494 71.9841 38.481 71.6604C38.4776 71.6104 38.4769 71.5589 38.4769 71.5075C38.4769 69.5873 40.0163 68.025 41.9084 68.025C42.0356 68.025 42.1548 68.0318 42.273 68.0457C42.9856 68.1252 43.656 68.4358 44.207 68.9436C44.2107 68.9468 44.2144 68.9503 44.2179 68.9537C44.2243 68.9593 44.2304 68.965 44.2365 68.9709C44.9367 69.638 45.3383 70.5626 45.3383 71.5074C45.3386 73.3942 43.7679 74.9883 41.9086 74.9883ZM40.1298 72.1589C40.4 72.9411 41.0962 73.4453 41.9086 73.4453C42.9138 73.4453 43.7955 72.5398 43.7955 71.5074C43.7955 70.9923 43.5767 70.4844 43.1942 70.109C43.1761 70.0934 43.1587 70.077 43.1417 70.06C42.8381 69.7871 42.4776 69.6208 42.0976 69.5786C42.0353 69.5712 41.9748 69.568 41.9084 69.568C40.8671 69.568 40.0198 70.4381 40.0198 71.5075C40.0198 71.5229 40.0194 71.5384 40.0203 71.5533C40.0214 71.5666 40.022 71.5766 40.0225 71.5899C40.0289 71.7749 40.0623 71.9576 40.1214 72.1324C40.1245 72.1412 40.1271 72.15 40.1298 72.1589Z" fill="white" stroke="white" stroke-width="1.5625"/>
<path d="M10.9273 47.8891C8.83689 47.8891 7.13623 46.1628 7.13623 44.0409C7.13623 43.2921 7.35286 42.5635 7.76252 41.9339C7.89105 41.7334 8.04319 41.5418 8.21214 41.3681C8.31892 41.2542 8.43356 41.1479 8.55283 41.0518C8.61085 41.0021 8.67395 40.9533 8.74508 40.9035C8.86729 40.8138 8.99751 40.7311 9.13237 40.6575C9.18853 40.6257 9.24639 40.5956 9.30626 40.5674C9.33959 40.5509 9.37307 40.5347 9.40779 40.5194C9.43433 40.5069 9.46195 40.4955 9.48972 40.4844C9.52367 40.4696 9.55761 40.4557 9.59156 40.4423C9.65883 40.4167 9.71376 40.3977 9.7707 40.3787C9.83226 40.3576 9.90092 40.3374 9.97174 40.3178C9.97792 40.3161 9.98393 40.3145 9.99011 40.313C10.0481 40.2985 10.1081 40.284 10.168 40.2712C10.2066 40.2628 10.2493 40.2551 10.291 40.248C10.3218 40.2422 10.3563 40.2371 10.3897 40.2324C10.4226 40.2269 10.4555 40.2224 10.4885 40.2184C10.5345 40.2128 10.5798 40.2088 10.6252 40.2051C10.6283 40.205 10.6412 40.2039 10.6442 40.2036C10.6709 40.2017 10.6976 40.2002 10.7242 40.1994C10.7911 40.1946 10.8593 40.1926 10.9275 40.1926C13.0571 40.1926 14.7895 41.9189 14.7895 44.0406C14.7895 44.0928 14.7889 44.1468 14.7855 44.1994C14.7667 44.6888 14.6554 45.1633 14.4548 45.6098C13.8355 46.994 12.4508 47.8891 10.9273 47.8891ZM10.0742 41.9109C10.0586 41.9187 10.0427 41.9262 10.0267 41.9329C10.0129 41.9386 10.0001 41.9456 9.98717 41.9521C9.98069 41.9553 9.97406 41.9586 9.96742 41.9618C9.94119 41.974 9.91573 41.9871 9.89105 42.0011C9.88595 42.0042 9.88086 42.007 9.87562 42.0098C9.79754 42.0522 9.72255 42.0997 9.65281 42.1513C9.64695 42.1556 9.64093 42.1601 9.63491 42.1642C9.60699 42.1835 9.57968 42.2036 9.5536 42.2263C9.54496 42.2338 9.53616 42.2412 9.52721 42.2483C9.4601 42.3019 9.39514 42.362 9.33434 42.4273C9.33033 42.4316 9.32617 42.4359 9.322 42.4401C9.2234 42.5409 9.13484 42.6524 9.05846 42.7714C8.80958 43.154 8.6792 43.5916 8.6792 44.0411C8.6792 45.2907 9.70867 46.3463 10.9273 46.3463C11.8434 46.3463 12.6752 45.8095 13.0467 44.9789C13.1675 44.7103 13.2336 44.4256 13.2438 44.1318C13.2441 44.1203 13.2448 44.1087 13.2458 44.0968C13.247 44.0787 13.2464 44.0596 13.2464 44.0411C13.2464 42.7702 12.206 41.7361 10.9273 41.7361C10.8941 41.7361 10.861 41.7365 10.8287 41.7393C10.8066 41.7413 10.7844 41.7422 10.7622 41.7422L10.7513 41.7433C10.7253 41.7456 10.6999 41.7473 10.6744 41.7506L10.6496 41.7538C10.6351 41.7567 10.622 41.7586 10.6073 41.7606L10.5798 41.7643C10.5744 41.7654 10.5595 41.7678 10.5541 41.7688C10.5335 41.7723 10.5122 41.7759 10.4919 41.7802C10.4507 41.789 10.4118 41.7984 10.374 41.8078C10.3368 41.8181 10.3004 41.8285 10.2641 41.841C10.2214 41.8552 10.1868 41.8669 10.1523 41.88C10.1433 41.8837 10.1223 41.8919 10.1012 41.9015C10.0882 41.9073 10.075 41.9129 10.0615 41.918C10.0554 41.9189 10.0665 41.9146 10.0742 41.9109Z" fill="white" stroke="white" stroke-width="1.5625"/>
<path d="M39.4769 43.7478C36.687 43.7478 34.4175 41.4207 34.4175 38.5603C34.4175 35.7744 36.7344 33.4207 39.4769 33.4207C42.2922 33.4207 44.5825 35.7264 44.5825 38.5603C44.5825 41.4207 42.2922 43.7478 39.4769 43.7478ZM39.4769 34.9637C37.5707 34.9637 35.9604 36.6108 35.9604 38.5603C35.9604 40.536 37.5708 42.2048 39.4769 42.2048C41.4414 42.2048 43.0396 40.5699 43.0396 38.5603C43.0396 36.6108 41.408 34.9637 39.4769 34.9637Z" fill="white" stroke="white" stroke-width="1.5625"/>
</svg>
