<svg width="70" height="72" viewBox="0 0 70 72" fill="none" xmlns="http://www.w3.org/2000/svg">
<path d="M6.37262 36.9526C8.09766 36.9526 9.46318 38.3443 9.46318 40.0291C9.46318 40.0677 9.46318 40.1079 9.4601 40.1465C9.4385 40.5461 9.30734 40.941 9.17619 41.2744C9.18236 41.2775 9.19008 41.279 9.19625 41.2821C8.71793 42.3516 7.64248 43.1059 6.37262 43.1059C4.71855 43.1059 3.35303 41.714 3.35303 40.0292C3.35303 39.409 3.53818 38.829 3.85449 38.3428L3.85603 38.3443C3.96404 38.1794 4.08439 38.028 4.21555 37.8891C4.3035 37.7981 4.39607 37.7119 4.49174 37.6332C4.54111 37.5929 4.58895 37.5543 4.63986 37.519C4.74016 37.4449 4.84508 37.3801 4.95309 37.3199C4.99629 37.2953 5.04104 37.272 5.08732 37.2505C5.1151 37.2366 5.14287 37.2227 5.17219 37.2104C5.1907 37.201 5.21076 37.1934 5.23082 37.1857C5.26168 37.1718 5.29254 37.1595 5.3234 37.1471C5.36814 37.1302 5.41289 37.1147 5.45918 37.0993C5.51318 37.0808 5.56719 37.0638 5.62273 37.0499C5.67211 37.0376 5.72303 37.0252 5.77395 37.0144C5.80943 37.0067 5.84646 37.0005 5.88195 36.9944C5.9051 36.9899 5.92824 36.9867 5.95293 36.9837C5.97762 36.9791 6.00231 36.9759 6.02699 36.9729C6.06557 36.9683 6.10414 36.9652 6.14272 36.9621C6.16432 36.9606 6.18592 36.959 6.20752 36.959C6.26152 36.9541 6.31707 36.9526 6.37262 36.9526Z" fill="black" stroke="black" stroke-width="1.5625"/>
<path d="M3.92393 41.5529C3.92393 40.9326 4.10908 40.3526 4.42539 39.8665L4.42693 39.868C4.53494 39.7031 4.65529 39.5517 4.78645 39.4128C4.87439 39.3218 4.96697 39.2355 5.06264 39.1568C5.11201 39.1166 5.15984 39.078 5.21076 39.0427C5.31106 38.9686 5.41598 38.9038 5.52398 38.8436C5.56719 38.8189 5.61193 38.7956 5.65822 38.7742C5.686 38.7603 5.71377 38.7464 5.74309 38.7341C5.7616 38.7247 5.78166 38.7171 5.80172 38.7094C5.83258 38.6955 5.86344 38.6832 5.8943 38.6708C5.93904 38.6538 5.98379 38.6384 6.03008 38.623C6.08408 38.6045 6.13809 38.5875 6.19363 38.5736C6.24301 38.5613 6.29393 38.5489 6.34484 38.5381C6.38033 38.5304 6.41736 38.5242 6.45285 38.5181C6.476 38.5136 6.49914 38.5103 6.52383 38.5074C6.54852 38.5028 6.5732 38.4995 6.59789 38.4966C6.63647 38.492 6.67504 38.4889 6.71361 38.4858C6.73521 38.4843 6.75682 38.4827 6.77842 38.4827C6.83242 38.4781 6.88797 38.4765 6.94352 38.4765C7.98409 38.4765 8.89136 38.985 9.44945 39.7566C9.3112 38.1971 8.00338 36.9529 6.37262 36.9529C6.31707 36.9529 6.26152 36.9544 6.20752 36.959C6.18592 36.959 6.16432 36.9606 6.14272 36.9621C6.10414 36.9654 6.06557 36.9683 6.02699 36.9729C6.00231 36.976 5.97762 36.9791 5.95293 36.9837C5.92824 36.9868 5.9051 36.9899 5.88195 36.9944C5.84646 37.0005 5.80943 37.0067 5.77395 37.0144C5.72303 37.0252 5.67211 37.0376 5.62273 37.0499C5.56719 37.0638 5.51318 37.0808 5.45918 37.0993C5.41289 37.1147 5.36814 37.13 5.3234 37.1471C5.29254 37.1595 5.26168 37.1718 5.23082 37.1857C5.21076 37.1934 5.1907 37.2011 5.17219 37.2104C5.14287 37.2227 5.1151 37.2366 5.08732 37.2505C5.04104 37.2721 4.99629 37.2953 4.95309 37.3199C4.84508 37.3801 4.74016 37.4449 4.63986 37.519C4.58895 37.5543 4.54111 37.5929 4.49174 37.6332C4.39607 37.7119 4.3035 37.7981 4.21555 37.8891C4.08439 38.028 3.96404 38.1794 3.85603 38.3443L3.85449 38.3428C3.53818 38.8288 3.35303 39.409 3.35303 40.0292C3.35303 40.7007 3.57244 41.3236 3.93812 41.8325C3.92963 41.7402 3.92393 41.6472 3.92393 41.5529Z" fill="black" stroke="black" stroke-width="1.5625"/>
<path d="M39.1499 65.5175C39.6761 66.019 40.0125 66.7272 40.0125 67.4956C40.0125 68.9598 38.7904 70.2051 37.3541 70.2051C36.1583 70.2051 35.1893 69.4243 34.8373 68.3736C34.8358 68.372 34.8358 68.369 34.8358 68.3674C34.7725 68.113 34.7108 67.8598 34.6969 67.6053C34.6938 67.5698 34.6938 67.5327 34.6938 67.4958C34.6938 66.03 35.8434 64.7848 37.3539 64.7848C37.4465 64.7848 37.5374 64.7894 37.6284 64.8002C38.1964 64.8635 38.7179 65.1196 39.1297 65.4992C39.1361 65.5067 39.1422 65.5129 39.1499 65.5175Z" fill="black" stroke="black" stroke-width="1.5625"/>
<path d="M39.15 65.5175C39.1423 65.5129 39.1361 65.5067 39.1299 65.499C38.718 65.1195 38.1965 64.8633 37.6286 64.8001C37.5376 64.7894 37.4466 64.7846 37.3541 64.7846C36.2452 64.7846 35.3329 65.4568 34.925 66.3936C35.3427 66.11 35.8464 65.9419 36.3994 65.9419C36.4919 65.9419 36.5828 65.9465 36.6738 65.9573C37.2418 66.0206 37.7633 66.2767 38.1752 66.6563C38.1813 66.664 38.1875 66.6701 38.1952 66.6748C38.7214 67.1762 39.0577 67.8845 39.0577 68.6529C39.0577 69.0349 38.973 69.401 38.8244 69.7349C39.5342 69.2417 40.0124 68.4115 40.0124 67.4956C40.0125 66.7272 39.6762 66.019 39.15 65.5175Z" fill="black" stroke="black" stroke-width="1.5625"/>
<path d="M65.891 29.2624C65.891 29.6991 65.7614 30.1049 65.5394 30.4412C65.5361 30.4397 65.5348 30.4366 65.5317 30.4351C65.4405 30.5816 65.3342 30.7143 65.2123 30.8301C65.186 30.8548 65.1598 30.8779 65.1319 30.901C65.1057 30.9226 65.0794 30.9442 65.0532 30.9643C65.027 30.9844 64.9992 31.0044 64.9714 31.0245C64.8048 31.1387 64.6212 31.2297 64.4252 31.2914C64.3498 31.3161 64.2709 31.3362 64.1922 31.35C64.1598 31.3578 64.1274 31.3624 64.095 31.367C64.0796 31.3686 64.0658 31.3701 64.0518 31.3716C64.0211 31.3763 63.9902 31.3794 63.9592 31.3809C63.9083 31.3855 63.8574 31.3871 63.8065 31.3871C62.6554 31.3871 61.7219 30.4351 61.7219 29.2624C61.7219 29.2207 61.7235 29.1791 61.7266 29.1374C61.7296 29.0742 61.7372 29.0078 61.7466 28.9399C61.7482 28.926 61.7497 28.9122 61.7528 28.8998C61.7651 28.8335 61.779 28.7656 61.7975 28.6977C62.0396 27.7997 62.8483 27.1393 63.8065 27.1393C64.956 27.1393 65.891 28.0913 65.891 29.2624Z" fill="black" stroke="black" stroke-width="1.5625"/>
<path d="M63.7165 28.4763C64.6867 28.4763 65.5017 29.1555 65.733 30.0711C65.8342 29.8219 65.891 29.5489 65.891 29.2622C65.891 28.0911 64.956 27.1391 63.8065 27.1391C62.8483 27.1391 62.0398 27.7995 61.7975 28.6975C61.779 28.7654 61.7651 28.8333 61.7528 28.8996C61.7495 28.912 61.7482 28.9259 61.7466 28.9398C61.7372 29.0077 61.7296 29.074 61.7266 29.1373C61.7233 29.1789 61.7219 29.2206 61.7219 29.2622C61.7219 29.4459 61.7472 29.623 61.7901 29.793C62.102 29.0211 62.8467 28.4763 63.7165 28.4763Z" fill="black" stroke="black" stroke-width="1.5625"/>
<path d="M32.8962 3.40842C32.8962 4.57953 31.9627 5.53155 30.8116 5.53155C30.7807 5.53155 30.7514 5.53155 30.7206 5.52846C30.7051 5.52846 30.6897 5.52692 30.6727 5.52537C30.4166 5.50223 30.1389 5.41891 29.909 5.3217C29.21 4.97916 28.7271 4.25088 28.7271 3.40842C28.7271 2.23576 29.6621 1.28375 30.8116 1.28375C31.8901 1.28375 32.7773 2.12004 32.8854 3.18932C32.8931 3.26184 32.8962 3.33436 32.8962 3.40842Z" fill="black" stroke="black" stroke-width="1.5625"/>
<path d="M30.9529 2.74957C31.7767 2.74957 32.4876 3.23823 32.8261 3.94507C32.8702 3.77333 32.8962 3.59419 32.8962 3.40842C32.8962 3.33436 32.8931 3.26184 32.8854 3.18932C32.7773 2.12004 31.8901 1.28375 30.8116 1.28375C29.6621 1.28375 28.7271 2.23576 28.7271 3.40842C28.7271 3.74186 28.8037 4.05678 28.9384 4.33744C29.1725 3.42493 29.9855 2.74957 30.9529 2.74957Z" fill="black" stroke="black" stroke-width="1.5625"/>
<path d="M34.9222 30.1805C37.2984 30.1805 39.2564 32.1755 39.2564 34.5486C39.2564 36.9711 37.2984 38.9646 34.9222 38.9646C32.5923 38.9646 30.6343 36.9711 30.6343 34.5486C30.6343 32.1755 32.5923 30.1805 34.9222 30.1805Z" fill="black" stroke="black" stroke-width="1.5625"/>
<path d="M31.4784 36.5545C31.4784 34.1814 33.4364 32.1863 35.7664 32.1863C37.1637 32.1863 38.4159 32.8766 39.2108 33.9276C38.9055 31.8376 37.0878 30.1805 34.9224 30.1805C32.5925 30.1805 30.6345 32.1755 30.6345 34.5486C30.6345 35.5512 30.9706 36.4799 31.529 37.2247C31.4957 37.0059 31.4784 36.7821 31.4784 36.5545Z" fill="black" stroke="black" stroke-width="1.5625"/>
<path d="M3.85588 39.1158C3.6664 39.1158 3.48295 39.0459 3.34115 38.9189C1.80944 37.6 1 36.0848 1 34.5363C1 30.8088 5.96065 27.442 14.6102 25.2994C17.706 24.5335 21.1442 23.953 24.8295 23.5744C26.6841 23.3835 28.6273 23.2442 30.6048 23.1606C32.0458 23.1018 33.4938 23.0719 34.9098 23.0719C36.3576 23.0719 37.8256 23.1023 39.2727 23.162C41.2146 23.2433 43.1402 23.38 44.9968 23.5679C48.7084 23.9436 52.1701 24.5229 55.2857 25.2897C57.9389 25.9441 60.2829 26.7234 62.252 27.6062C62.4426 27.6917 62.5904 27.8506 62.6617 28.047C62.733 28.2434 62.7215 28.4602 62.63 28.6481C62.5972 28.7154 62.5682 28.7978 62.5456 28.8864C62.5291 28.9478 62.5199 28.995 62.5112 29.0408C62.4332 29.4597 62.0304 29.7361 61.6115 29.658C61.1926 29.5799 60.9164 29.1771 60.9945 28.7582C60.9953 28.7534 60.9962 28.7486 60.9973 28.7437C59.2451 28.0087 57.2031 27.3517 54.9164 26.7878C51.8712 26.0382 48.4813 25.4713 44.8413 25.103C43.0149 24.918 41.1198 24.7836 39.2087 24.7035C37.783 24.6446 36.3366 24.6147 34.9098 24.6147C33.5147 24.6147 32.0877 24.644 30.6688 24.702C28.7233 24.7844 26.8114 24.9213 24.9873 25.109C21.3735 25.4804 18.0069 26.0484 14.981 26.797C7.30905 28.6977 2.54297 31.6631 2.54297 34.5363C2.54297 35.4367 2.97238 36.3547 3.79308 37.222C3.86298 37.1556 3.93226 37.0942 4.00185 37.0371C4.06634 36.9846 4.12667 36.9368 4.18993 36.8922C4.30581 36.8072 4.43295 36.7265 4.57814 36.6457C4.95031 36.4383 5.42014 36.5724 5.62736 36.9447C5.83458 37.317 5.70065 37.7868 5.32834 37.9941C5.23807 38.0444 5.16278 38.0919 5.09828 38.1394C5.09242 38.1437 5.0864 38.1482 5.08038 38.1524C5.0452 38.1766 5.0128 38.2037 4.97885 38.2315C4.91158 38.2868 4.84045 38.3528 4.77024 38.4255C4.67458 38.5268 4.582 38.6441 4.50146 38.7671C4.37416 38.9613 4.16633 39.088 3.93519 39.1118C3.9088 39.1144 3.88227 39.1158 3.85588 39.1158Z" fill="black" stroke="black" stroke-width="1.5625"/>
<path d="M5.08793 38.022C4.80495 38.022 4.53246 37.8657 4.3973 37.5954C4.20674 37.2142 4.36119 36.7507 4.74231 36.5603C4.78474 36.539 4.82748 36.5184 4.87238 36.4992C5.26491 36.3337 5.71731 36.5179 5.88271 36.9103C6.04828 37.3028 5.8642 37.7554 5.47182 37.9211C5.45809 37.9268 5.44528 37.9337 5.43232 37.9402C5.32169 37.9958 5.20396 38.022 5.08793 38.022Z" fill="black" stroke="black" stroke-width="1.5625"/>
<path d="M5.23129 37.9572C4.93674 37.9572 4.65545 37.7876 4.52708 37.5014C4.35257 37.1127 4.52631 36.6562 4.91498 36.4818C4.95572 36.4636 4.9963 36.4469 5.03703 36.4307C5.43249 36.2726 5.8815 36.465 6.03996 36.8604C6.19811 37.2561 6.00571 37.7052 5.61009 37.8634C5.58895 37.8719 5.56797 37.8799 5.54683 37.8895C5.44422 37.9354 5.33683 37.9572 5.23129 37.9572Z" fill="black" stroke="black" stroke-width="1.5625"/>
<path d="M5.45912 37.8708C5.13865 37.8708 4.83931 37.6696 4.72945 37.3496C4.5912 36.9465 4.80583 36.5077 5.20885 36.3693C5.28384 36.3435 5.35883 36.3204 5.43598 36.3011C5.84888 36.199 6.2681 36.4494 6.37133 36.8629C6.47455 37.2763 6.22305 37.6952 5.80968 37.7984C5.77574 37.8069 5.74272 37.8177 5.7097 37.829C5.62669 37.8574 5.54229 37.8708 5.45912 37.8708Z" fill="black" stroke="black" stroke-width="1.5625"/>
<path d="M5.7731 37.7859C5.41775 37.7859 5.09805 37.5389 5.01982 37.1777C4.92971 36.7612 5.19402 36.3505 5.61062 36.2604C5.65182 36.2514 5.6944 36.2439 5.73606 36.2366C5.76816 36.2304 5.80195 36.2254 5.83744 36.2206C5.86953 36.2152 5.90147 36.2109 5.93356 36.207C5.97955 36.2014 6.02491 36.1974 6.07027 36.1937C6.07336 36.1936 6.08632 36.1925 6.0894 36.1922C6.1289 36.1894 6.16825 36.1874 6.2076 36.1874C6.63361 36.1874 6.97908 36.5327 6.97908 36.9589C6.97908 37.3827 6.63731 37.7268 6.21439 37.7304L6.19664 37.7316C6.17057 37.7338 6.14526 37.7355 6.1198 37.7387L6.09496 37.7419C6.0783 37.7452 6.06317 37.7475 6.04636 37.7495L6.02753 37.7521C6.02213 37.7532 6.0047 37.7561 5.99914 37.7571C5.97862 37.7606 5.95733 37.7642 5.93711 37.7685C5.88218 37.7802 5.82725 37.7859 5.7731 37.7859Z" fill="black" stroke="black" stroke-width="1.5625"/>
<path d="M34.9098 46.0005C33.4285 46.0005 31.9519 45.9692 30.5207 45.9073C28.5978 45.8263 26.68 45.6887 24.8219 45.4983C21.1499 45.1238 17.72 44.5475 14.6281 43.7856C12.5256 43.2685 10.6042 42.6685 8.9177 42.0016C8.88854 41.991 8.86046 41.9789 8.83453 41.9663C8.47502 41.7887 8.31147 41.3653 8.4582 40.9922C8.54955 40.76 8.67283 40.4154 8.68965 40.105C8.69027 40.0874 8.69166 40.0578 8.69166 40.0294C8.69166 39.6032 9.03713 39.2579 9.46314 39.2579C9.88915 39.2579 10.2346 39.6032 10.2346 40.0294C10.2346 40.0777 10.2329 40.1278 10.2311 40.1761C10.2189 40.4011 10.1829 40.6159 10.1349 40.8159C11.5964 41.3585 13.2283 41.8526 14.9968 42.2874C18.0195 43.0322 21.3778 43.596 24.9788 43.9632C26.8069 44.1505 28.6935 44.286 30.5864 44.3658C33.3913 44.4869 36.3481 44.4883 39.292 44.3656C41.1921 44.2834 43.0622 44.1496 44.8487 43.9677C48.4874 43.5997 51.8673 43.0349 54.8948 42.2889C62.6925 40.3718 67.3476 37.4736 67.3476 34.5363C67.3476 33.5141 66.7641 32.4915 65.6112 31.4905C65.3078 31.6742 64.9068 31.629 64.6527 31.3612C64.3593 31.0522 64.372 30.5639 64.6811 30.2704C64.753 30.2022 64.8188 30.1204 64.8765 30.0276C65.087 29.6892 65.5206 29.5668 65.8767 29.7449C65.9242 29.7687 65.9704 29.7983 66.0129 29.8321C67.9225 31.276 68.8906 32.8586 68.8906 34.5363C68.8906 36.517 67.5771 38.3588 64.9864 40.0109C62.6732 41.4863 59.3111 42.7919 55.2635 43.7871C52.1665 44.5503 48.7146 45.1277 45.0043 45.5028C43.1887 45.6875 41.2889 45.8236 39.3575 45.9072C37.8709 45.9692 36.375 46.0005 34.9098 46.0005Z" fill="black" stroke="black" stroke-width="1.5625"/>
<path d="M64.4249 32.063C64.0949 32.063 63.7895 31.8495 63.6877 31.5175C63.5627 31.1101 63.7917 30.6785 64.199 30.5537C64.3169 30.5176 64.4276 30.4635 64.5285 30.3928C64.5377 30.3863 64.547 30.38 64.5565 30.374C64.5738 30.3595 64.5917 30.3457 64.6101 30.3328C64.9207 30.0473 65.4038 30.0641 65.6936 30.372C65.9858 30.6821 65.9711 31.1704 65.6608 31.4625C65.6172 31.5037 65.5715 31.5417 65.5249 31.5756C65.484 31.609 65.4411 31.64 65.3964 31.6685C65.1679 31.826 64.9173 31.9473 64.6514 32.0288C64.576 32.0521 64.4998 32.063 64.4249 32.063Z" fill="black" stroke="black" stroke-width="1.5625"/>
<path d="M64.0963 32.1383C63.7189 32.1383 63.3881 31.8614 63.3327 31.477C63.2719 31.0553 63.5634 30.6643 63.9851 30.6036L63.9876 30.6032L64.0203 30.5983C64.4342 30.5002 64.8476 30.7568 64.9461 31.1715C65.0445 31.5861 64.7851 32.0026 64.3707 32.1008C64.3162 32.1137 64.2621 32.1226 64.2077 32.1303C64.1701 32.1356 64.1331 32.1383 64.0963 32.1383Z" fill="black" stroke="black" stroke-width="1.5625"/>
<path d="M63.9586 32.1524C63.5499 32.1524 63.2089 31.8313 63.1887 31.4186C63.1679 30.993 63.496 30.6312 63.9217 30.6103L63.9359 30.609C64.3579 30.5455 64.7506 30.8347 64.8145 31.2558C64.8785 31.677 64.5889 32.0703 64.1677 32.1343C64.1111 32.143 64.054 32.1487 63.9969 32.1515C63.9841 32.1521 63.9713 32.1524 63.9586 32.1524Z" fill="black" stroke="black" stroke-width="1.5625"/>
<path d="M61.7272 29.9089C61.7148 29.9089 61.7023 29.9086 61.6898 29.908C61.2643 29.8878 60.9356 29.5263 60.956 29.1007C60.9597 29.0222 60.9679 28.9401 60.9824 28.8348C61.0404 28.4128 61.4281 28.1169 61.8518 28.1758C62.2738 28.2339 62.569 28.6231 62.5108 29.0453C62.5048 29.0897 62.4991 29.1329 62.4971 29.1743C62.4775 29.5872 62.1365 29.9089 61.7272 29.9089Z" fill="black" stroke="black" stroke-width="1.5625"/>
<path d="M39.1493 66.289C38.9931 66.289 38.8359 66.2418 38.6995 66.144C38.3536 65.8953 38.2747 65.4132 38.5235 65.0671C40.0927 62.8851 41.4762 59.3778 42.5248 54.9243C43.252 51.8427 43.8017 48.39 44.1589 44.6617C44.3375 42.8095 44.4668 40.9047 44.5432 39.0001C44.6023 37.5205 44.6321 36.0186 44.6321 34.5363C44.6321 33.0742 44.6023 31.5921 44.5432 30.1314C44.4641 28.1802 44.3323 26.2556 44.1511 24.4112C43.7907 20.7245 43.2391 17.2993 42.5113 14.2299C40.6591 6.40409 37.7463 1.54297 34.9098 1.54297C34.371 1.54297 33.8603 1.69742 33.3385 2.02283C33.5096 2.34902 33.6178 2.72072 33.6537 3.11973C33.6921 3.54405 33.3794 3.9193 32.955 3.95772C32.5313 3.99799 32.1556 3.68338 32.1171 3.25906C32.0865 2.9213 31.9534 2.62984 31.7518 2.45949C31.5786 2.31322 31.4786 2.09813 31.4783 1.87131C31.478 1.6445 31.5775 1.4291 31.7503 1.28221C32.7657 0.419533 33.7992 0 34.91 0C38.6625 0 41.8953 4.92732 44.0129 13.8741C44.7566 17.0108 45.3199 20.5054 45.6872 24.2607C45.8709 26.1342 46.005 28.0884 46.0852 30.0691C46.1451 31.5508 46.1754 33.0536 46.1754 34.5364C46.1754 36.0391 46.1451 37.5616 46.0852 39.0618C46.0076 40.9954 45.8763 42.9291 45.695 44.8094C45.3314 48.6068 44.7702 52.1292 44.0269 55.2784C42.9325 59.9267 41.4627 63.6234 39.7765 65.9681C39.6256 66.1775 39.3891 66.289 39.1493 66.289Z" fill="black" stroke="black" stroke-width="1.5625"/>
<path d="M34.8376 69.1451C34.831 69.1451 34.8245 69.1449 34.8179 69.1447C31.1305 69.0516 27.9387 64.1287 25.8304 55.2829C25.0749 52.1124 24.5037 48.5875 24.1328 44.8061C23.947 42.905 23.8126 40.9456 23.7332 38.982C23.6733 37.5083 23.6431 36.0126 23.6431 34.5363C23.6431 33.0555 23.6728 31.5798 23.7316 30.1502C23.8137 28.1383 23.9514 26.1581 24.1407 24.265C24.5135 20.5136 25.0847 17.0152 25.8382 13.8676C26.7164 10.1998 27.7991 7.17249 29.056 4.87022C29.2565 4.50238 29.714 4.36213 30.0865 4.55422C30.1248 4.57382 30.1675 4.59342 30.2113 4.61209C30.3936 4.68908 30.5928 4.74355 30.7421 4.75697C30.7433 4.75728 30.7318 4.75697 30.7205 4.75697C31.1465 4.75697 31.492 5.10244 31.492 5.52846C31.492 5.95447 31.1465 6.29994 30.7205 6.29994C30.6844 6.29994 30.6481 6.29778 30.6091 6.29423C30.4287 6.27788 30.2552 6.2427 30.1004 6.20119C29.0487 8.29392 28.0992 11.0504 27.3388 14.2268C26.6014 17.3067 26.0419 20.7356 25.6759 24.4181C25.4895 26.2817 25.3541 28.2314 25.2732 30.2133C25.2154 31.6222 25.186 33.0765 25.186 34.5363C25.186 35.9917 25.216 37.4664 25.2749 38.9194C25.353 40.854 25.4854 42.7839 25.6684 44.6557C26.0327 48.3674 26.5921 51.8226 27.3314 54.9252C29.1782 62.6742 32.0618 67.5317 34.8567 67.6024C35.2826 67.613 35.6193 67.967 35.6085 68.393C35.5978 68.8124 35.2547 69.1451 34.8376 69.1451Z" fill="black" stroke="black" stroke-width="1.5625"/>
<path d="M34.8351 69.139C34.489 69.139 34.1743 68.9045 34.0871 68.5536C34.0237 68.2986 33.9448 67.9812 33.9265 67.6472C33.9033 67.2218 34.2293 66.8581 34.6549 66.8349C35.0803 66.8087 35.444 67.1378 35.4673 67.5634C35.4774 67.7511 35.5319 67.9698 35.5845 68.1812C35.6873 68.5948 35.4355 69.0133 35.022 69.1162C34.9595 69.1316 34.8968 69.139 34.8351 69.139Z" fill="black" stroke="black" stroke-width="1.5625"/>
<path d="M39.1299 66.2705C38.9325 66.2705 38.7349 66.1952 38.5844 66.0445C38.3221 65.7823 37.9447 65.6083 37.5491 65.5674C37.1252 65.5235 36.8173 65.1444 36.8611 64.7206C36.9051 64.2969 37.2839 63.9906 37.7079 64.0326C38.4607 64.1105 39.1593 64.4375 39.6753 64.9536C39.9767 65.2548 39.9767 65.7433 39.6753 66.0445C39.5249 66.1952 39.3272 66.2705 39.1299 66.2705Z" fill="black" stroke="black" stroke-width="1.5625"/>
<path d="M14.8003 60.431C13.1436 60.431 11.8396 59.9584 10.9248 59.0266C9.55295 57.6283 9.20594 55.3782 9.89302 52.3384C10.5074 49.6205 11.9797 46.2667 14.1507 42.6401C15.8055 39.8749 17.8305 36.9936 20.1697 34.0766C21.3619 32.5904 22.627 31.1059 23.9302 29.6645C24.9223 28.5658 25.9399 27.4848 26.9549 26.4519C27.9865 25.4005 29.0481 24.3629 30.1101 23.3683C31.5233 22.0416 32.9795 20.7528 34.4378 19.5383C37.3022 17.1529 40.1341 15.0864 42.8552 13.3964C47.7882 10.3336 52.0175 8.71469 55.086 8.71469C56.7463 8.71469 58.0519 9.18699 58.9661 10.1183C61.5931 12.796 60.4556 18.5908 55.7633 26.4352C54.1071 29.2072 52.0742 32.1029 49.7215 35.0416C48.5117 36.5523 47.2216 38.0683 45.8871 39.5477C44.9295 40.6108 43.9371 41.6691 42.9377 42.693C41.9331 43.7112 40.8959 44.7219 39.8518 45.6997C38.4009 47.0578 36.9119 48.3724 35.4262 49.6072C32.5494 51.999 29.7104 54.0689 26.988 55.7595C22.0684 58.8157 17.854 60.431 14.8003 60.431ZM55.0858 10.2577C52.3449 10.2577 48.2904 11.838 43.6691 14.7073C41.0087 16.3596 38.2349 18.384 35.4253 20.7241C33.9903 21.9193 32.5572 23.1876 31.1655 24.494C30.1187 25.4744 29.0727 26.4966 28.0559 27.533C27.0559 28.5509 26.0532 29.6161 25.0752 30.6991C23.7921 32.1186 22.5468 33.5796 21.3736 35.0422C19.0783 37.9046 17.0937 40.7276 15.4749 43.4327C11.3405 50.3394 10.0191 55.9005 12.026 57.946C12.6398 58.5713 13.5732 58.8882 14.8003 58.8882C17.5264 58.8882 21.5656 57.3116 26.1738 54.4489C28.8364 52.7956 31.6174 50.7675 34.4398 48.421C35.9024 47.2053 37.3684 45.9107 38.7971 44.5734C39.8263 43.6096 40.8488 42.6133 41.8363 41.6123C42.8186 40.6062 43.7968 39.5631 44.741 38.5148C46.0557 37.0575 47.3259 35.5645 48.5171 34.0774C50.826 31.1934 52.8184 28.3559 54.439 25.6437C58.6126 18.6665 59.8932 13.2669 57.8648 11.1993C57.2515 10.5744 56.3166 10.2577 55.0858 10.2577Z" fill="black" stroke="black" stroke-width="1.5625"/>
<path d="M55.0853 60.4305C52.0193 60.4305 47.795 58.8143 42.869 55.7564C40.1457 54.0669 37.3094 51.9977 34.4392 49.6068C32.9616 48.3787 31.4764 47.0636 30.0254 45.6984C29.0107 44.7467 27.9772 43.7358 26.9547 42.6946C25.8965 41.6096 24.8794 40.5239 23.9299 39.4661C22.6302 38.0238 21.3647 36.5349 20.1692 35.0414C17.8138 32.0987 15.783 29.2061 14.1332 26.4439C9.43614 18.5949 8.29635 12.7969 10.9243 10.1185C11.8388 9.18699 13.1422 8.71484 14.7981 8.71484C17.8538 8.71484 22.0717 10.332 26.9956 13.3919C29.7123 15.0793 32.5481 17.147 35.4244 19.5378C36.8715 20.7406 38.3327 22.0296 39.7672 23.3692C40.8335 24.3649 41.899 25.4017 42.9343 26.4508C43.9642 27.501 44.9568 28.5542 45.8863 29.583C47.2128 31.0475 48.503 32.5596 49.7206 34.0766C52.0642 36.9989 54.0898 39.8807 55.7414 42.6421C57.912 46.2682 59.384 49.6216 59.9983 52.3397C60.6849 55.3787 60.3376 57.6285 58.9661 59.0267C58.0515 59.9582 56.7459 60.4305 55.0853 60.4305ZM14.7984 10.2578C13.5719 10.2578 12.639 10.5746 12.0259 11.1993C9.99685 13.2675 11.2797 18.6705 15.4579 25.6522C17.072 28.3548 19.0624 31.1893 21.3741 34.0772C22.5508 35.5472 23.7967 37.0132 25.0774 38.4341C26.0136 39.4775 27.016 40.5472 28.0576 41.6151C29.0636 42.6395 30.0818 43.6356 31.082 44.5737C32.5109 45.9181 33.9721 47.2122 35.4262 48.4205C38.2423 50.7665 41.0199 52.7933 43.6828 54.4454C48.2975 57.31 52.3469 58.8876 55.0855 58.8876C56.3165 58.8876 57.2515 58.5706 57.8651 57.9457C59.8724 55.9001 58.5515 50.3395 54.4178 43.4343C52.802 40.7328 50.817 37.9094 48.5175 35.0421C47.3193 33.5491 46.0492 32.0606 44.7425 30.6181C43.8263 29.604 42.8485 28.5662 41.8348 27.5327C40.8158 26.5002 39.7655 25.4781 38.7144 24.4966C37.3017 23.1774 35.863 21.9082 34.4386 20.7242C31.6166 18.3786 28.8387 16.3525 26.1817 14.7023C21.5691 11.8363 17.5265 10.2578 14.7984 10.2578Z" fill="black" stroke="black" stroke-width="1.5625"/>
<path d="M30.8116 6.30303C30.7692 6.30303 30.7281 6.30241 30.6866 6.29964C30.6624 6.29917 30.6311 6.29748 30.5945 6.29331C30.2338 6.26692 29.8878 6.17265 29.5658 6.01264C28.5891 5.53386 27.9556 4.51103 27.9556 3.40842C27.9556 1.81145 29.2367 0.512268 30.8116 0.512268C32.2817 0.512268 33.5033 1.62984 33.653 3.11186C33.6627 3.20305 33.6678 3.30165 33.6678 3.40842C33.6676 5.00447 32.3865 6.30303 30.8116 6.30303ZM30.7491 4.75759C30.7658 4.75821 30.7829 4.75929 30.7974 4.76083L30.8114 4.76006C31.5354 4.76006 32.1245 4.15367 32.1245 3.40842C32.1245 3.35704 32.1224 3.31214 32.118 3.2714C32.0478 2.57614 31.4863 2.05524 30.8114 2.05524C30.0875 2.05524 29.4984 2.66224 29.4984 3.40842C29.4984 3.92655 29.7928 4.40564 30.2483 4.62906C30.3976 4.70313 30.5553 4.74509 30.7206 4.75543C30.7303 4.75605 30.7397 4.75682 30.7491 4.75759Z" fill="black" stroke="black" stroke-width="1.5625"/>
<path d="M63.8065 32.1586C62.2317 32.1586 60.9504 30.8594 60.9504 29.2624C60.9504 29.2052 60.9524 29.1481 60.9565 29.091C60.9609 29.0006 60.9694 28.9163 60.9821 28.8349C60.9845 28.8151 60.9881 28.7889 60.9941 28.7586C61.0083 28.6724 61.0282 28.5844 61.0546 28.49C61.3908 27.2433 62.5232 26.3678 63.8065 26.3678C65.3812 26.3678 66.6625 27.6664 66.6625 29.2624C66.6625 29.8367 66.4968 30.3914 66.1833 30.8663C66.0609 31.056 65.9091 31.2363 65.7364 31.3963C65.7034 31.4275 65.6653 31.4611 65.6246 31.4948C65.5895 31.5238 65.5562 31.5509 65.523 31.5764C65.4897 31.6019 65.4559 31.6264 65.422 31.6508C65.4173 31.6542 65.4124 31.6574 65.4076 31.6608C65.1746 31.8205 64.9222 31.9438 64.657 32.0273C64.554 32.0609 64.4403 32.0896 64.3269 32.1096C64.293 32.1161 64.2492 32.1242 64.2053 32.1305C64.1938 32.1322 64.1822 32.1336 64.1705 32.1346L64.1489 32.137C64.104 32.1433 64.0589 32.1478 64.0139 32.1504C63.9446 32.1564 63.8756 32.1586 63.8065 32.1586ZM62.5115 29.0394C62.5102 29.0495 62.5087 29.0598 62.5076 29.0674C62.5027 29.0972 62.4991 29.1325 62.4974 29.1725C62.497 29.1803 62.4965 29.188 62.4959 29.1958C62.4942 29.218 62.4934 29.2402 62.4934 29.2624C62.4934 30.0086 63.0824 30.6156 63.8065 30.6156C63.8339 30.6156 63.8612 30.6151 63.8887 30.6127C63.8997 30.6116 63.9108 30.6108 63.9217 30.6103C63.9327 30.6086 63.958 30.6059 63.9694 30.6046L63.9961 30.6017C64.0134 30.5989 64.0307 30.5955 64.0478 30.5921C64.0992 30.583 64.1431 30.5719 64.1853 30.558C64.3107 30.5185 64.4237 30.4636 64.529 30.3923C64.5482 30.3786 64.567 30.365 64.5849 30.3513C64.603 30.3374 64.6219 30.3217 64.6412 30.3058C64.6545 30.2947 64.6688 30.282 64.683 30.2686C64.7662 30.1916 64.8346 30.1104 64.8913 30.0228C65.0422 29.7943 65.1195 29.5335 65.1195 29.2624C65.1195 28.5172 64.5306 27.9108 63.8065 27.9108C63.2191 27.9108 62.6992 28.3169 62.5425 28.8986C62.5284 28.949 62.5204 28.9847 62.5153 29.0174C62.5142 29.0246 62.5129 29.032 62.5115 29.0394Z" fill="black" stroke="black" stroke-width="1.5625"/>
<path d="M37.3538 70.9766C35.8832 70.9766 34.5779 70.0289 34.1056 68.6186L34.1059 68.6185C34.1037 68.612 34.1016 68.6053 34.0994 68.5987C33.9974 68.292 33.9392 67.9724 33.9263 67.6487C33.9229 67.5987 33.9221 67.5472 33.9221 67.4958C33.9221 65.5756 35.4615 64.0133 37.3537 64.0133C37.4808 64.0133 37.6001 64.0201 37.7183 64.034C38.4308 64.1134 39.1012 64.424 39.6522 64.9318C39.6559 64.9351 39.6596 64.9386 39.6632 64.942C39.6695 64.9476 39.6757 64.9533 39.6817 64.9591C40.3819 65.6263 40.7835 66.5509 40.7835 67.4956C40.7839 69.3825 39.2131 70.9766 37.3538 70.9766ZM35.5751 68.1472C35.8453 68.9294 36.5415 69.4336 37.3538 69.4336C38.3591 69.4336 39.2407 68.528 39.2407 67.4956C39.2407 66.9806 39.0219 66.4726 38.6394 66.0972C38.6214 66.0817 38.6039 66.0653 38.587 66.0483C38.2833 65.7754 37.9229 65.609 37.5428 65.5669C37.4805 65.5595 37.42 65.5563 37.3537 65.5563C36.3123 65.5563 35.4651 66.4264 35.4651 67.4958C35.4651 67.5112 35.4646 67.5266 35.4656 67.5416C35.4666 67.5549 35.4672 67.5649 35.4677 67.5782C35.4742 67.7632 35.5075 67.9459 35.5666 68.1207C35.5697 68.1295 35.5723 68.1383 35.5751 68.1472Z" fill="black" stroke="black" stroke-width="1.5625"/>
<path d="M6.37262 43.8774C4.2822 43.8774 2.58154 42.1511 2.58154 40.0292C2.58154 39.2804 2.79818 38.5518 3.20783 37.9222C3.33636 37.7217 3.4885 37.5301 3.65745 37.3564C3.76423 37.2425 3.87887 37.1362 3.99814 37.04C4.05616 36.9904 4.11927 36.9416 4.1904 36.8918C4.3126 36.8021 4.44283 36.7194 4.57768 36.6458C4.63385 36.614 4.69171 36.5839 4.75157 36.5557C4.7849 36.5392 4.81838 36.523 4.8531 36.5077C4.87964 36.4952 4.90726 36.4838 4.93503 36.4727C4.96898 36.4579 5.00292 36.444 5.03687 36.4306C5.10414 36.405 5.15907 36.386 5.21601 36.367C5.27757 36.3459 5.34623 36.3256 5.41706 36.3061C5.42323 36.3044 5.42925 36.3028 5.43542 36.3013C5.49343 36.2868 5.55346 36.2723 5.61332 36.2595C5.6519 36.2511 5.69464 36.2434 5.7363 36.2363C5.76716 36.2304 5.80156 36.2254 5.83505 36.2207C5.86791 36.2152 5.90078 36.2107 5.9338 36.2067C5.97978 36.2011 6.02514 36.1971 6.0705 36.1934C6.07359 36.1933 6.08655 36.1922 6.08948 36.1919C6.11618 36.19 6.14287 36.1885 6.16956 36.1877C6.23637 36.1829 6.30457 36.1809 6.37277 36.1809C8.50238 36.1809 10.2348 37.9072 10.2348 40.0289C10.2348 40.0811 10.2342 40.1351 10.2308 40.1877C10.212 40.6771 10.1007 41.1516 9.90015 41.5981C9.2808 42.9823 7.89614 43.8774 6.37262 43.8774ZM5.51951 37.8992C5.50393 37.907 5.48803 37.9144 5.47199 37.9212C5.45825 37.9269 5.44545 37.9339 5.43249 37.9404C5.42601 37.9436 5.41937 37.9468 5.41274 37.9501C5.38651 37.9623 5.36105 37.9754 5.33636 37.9894C5.33127 37.9925 5.32618 37.9953 5.32093 37.9981C5.24286 38.0405 5.16787 38.088 5.09813 38.1396C5.09226 38.1439 5.08624 38.1484 5.08023 38.1525C5.0523 38.1718 5.02499 38.1919 4.99891 38.2146C4.99027 38.2221 4.98148 38.2295 4.97253 38.2366C4.90541 38.2902 4.84045 38.3503 4.77966 38.4156C4.77564 38.4199 4.77148 38.4242 4.76731 38.4284C4.66872 38.5292 4.58015 38.6407 4.50377 38.7597C4.25489 39.1423 4.12451 39.5799 4.12451 40.0294C4.12451 41.279 5.15398 42.3346 6.37262 42.3346C7.28868 42.3346 8.12049 41.7978 8.49204 40.9672C8.61285 40.6986 8.67889 40.4139 8.68908 40.1201C8.68938 40.1086 8.69016 40.097 8.69108 40.0851C8.69232 40.067 8.6917 40.0479 8.6917 40.0294C8.6917 38.7585 7.65128 37.7244 6.37262 37.7244C6.33944 37.7244 6.30627 37.7248 6.27402 37.7276C6.25196 37.7296 6.22974 37.7305 6.20752 37.7305L6.19656 37.7316C6.17064 37.7339 6.14518 37.7356 6.11972 37.7389L6.09488 37.7421C6.08038 37.745 6.06726 37.7469 6.05261 37.7489L6.02514 37.7526C6.01974 37.7537 6.00477 37.7561 5.99937 37.7571C5.97885 37.7606 5.95756 37.7642 5.93719 37.7685C5.89599 37.7773 5.85711 37.7867 5.81931 37.7961C5.78212 37.8064 5.74571 37.8168 5.70945 37.8293C5.66671 37.8435 5.63215 37.8552 5.59758 37.8683C5.58863 37.872 5.56765 37.8802 5.54651 37.8898C5.53355 37.8956 5.52028 37.9012 5.50686 37.9063C5.50069 37.9072 5.5118 37.9029 5.51951 37.8992Z" fill="black" stroke="black" stroke-width="1.5625"/>
<path d="M34.9222 39.7361C32.1323 39.7361 29.8628 37.409 29.8628 34.5486C29.8628 31.7626 32.1797 29.409 34.9222 29.409C37.7375 29.409 40.0279 31.7146 40.0279 34.5486C40.0279 37.409 37.7375 39.7361 34.9222 39.7361ZM34.9222 30.952C33.016 30.952 31.4058 32.5991 31.4058 34.5486C31.4058 36.5242 33.0162 38.1931 34.9222 38.1931C36.8867 38.1931 38.4849 36.5582 38.4849 34.5486C38.4849 32.5991 36.8534 30.952 34.9222 30.952Z" fill="black" stroke="black" stroke-width="1.5625"/>
</svg>
